<svg width="22" height="26" viewBox="0 0 22 26" fill="none" xmlns="http://www.w3.org/2000/svg">
<path d="M17.9007 13.567C17.871 10.344 20.6074 8.776 20.7325 8.703C19.1828 6.5 16.7807 6.199 15.9366 6.175C13.9192 5.968 11.9623 7.352 10.9346 7.352C9.88637 7.352 8.3038 6.195 6.59816 6.229C4.40329 6.262 2.34996 7.501 1.2238 9.425C-1.1003 13.348 0.633036 19.113 2.8597 22.284C3.97355 23.837 5.27509 25.571 6.97868 25.51C8.64534 25.443 9.26791 24.474 11.2792 24.474C13.272 24.474 13.8566 25.51 15.5941 25.471C17.3828 25.443 18.5089 23.911 19.5838 22.344C20.871 20.564 21.3879 18.811 21.4084 18.721C21.3664 18.707 17.9346 17.43 17.9007 13.567Z" fill="#0A0A0A"/>
<path d="M14.6187 4.089C15.5151 2.996 16.1284 1.509 15.9582 0C14.6607 0.056 13.0382 0.875 12.1038 1.944C11.2771 2.886 10.5387 4.43 10.7294 5.882C12.1869 5.988 13.6833 5.165 14.6187 4.089Z" fill="#0A0A0A"/>
</svg>
