<svg width="42" height="48" viewBox="0 0 42 48" fill="none" xmlns="http://www.w3.org/2000/svg">
<path d="M5.1958 15.6322C5.1958 24.2299 12.2303 31.2644 20.828 31.2644C29.4257 31.2644 36.4602 24.2299 36.4602 15.6322C36.4602 7.03448 29.4257 0 20.828 0C12.2303 0 5.1958 7.03448 5.1958 15.6322ZM32.782 15.6322C32.782 22.2069 27.4027 27.5862 20.828 27.5862C14.2533 27.5862 8.87396 22.2069 8.87396 15.6322C8.87396 9.05747 14.2533 3.67816 20.828 3.67816C27.4027 3.67816 32.782 9.05747 32.782 15.6322Z" fill="#D4D4D4"/>
<path d="M1.31306 46.6925C2.03524 47.4147 3.20206 47.409 3.97289 46.739C8.65589 42.6684 14.5513 40.4599 20.8276 40.4599C27.1038 40.4599 32.9993 42.6684 37.6823 46.739C38.4531 47.409 39.6199 47.4147 40.3421 46.6925C41.0664 45.9682 41.0674 44.7882 40.2973 44.1128C34.9147 39.3929 28.066 36.7817 20.8276 36.7817C13.5892 36.7817 6.74047 39.3929 1.35791 44.1128C0.587761 44.7882 0.588761 45.9682 1.31306 46.6925Z" fill="#D4D4D4"/>
</svg>
