<svg width="64" height="64" viewBox="0 0 64 64" fill="none" xmlns="http://www.w3.org/2000/svg">
<path d="M0 32C0 14.3269 14.3269 0 32 0C49.6731 0 64 14.3269 64 32C64 49.6731 49.6731 64 32 64C14.3269 64 0 49.6731 0 32Z" fill="#0A0A0A" fill-opacity="0.03"/>
<path d="M0.5 32C0.5 14.603 14.603 0.5 32 0.5C49.397 0.5 63.5 14.603 63.5 32C63.5 49.397 49.397 63.5 32 63.5C14.603 63.5 0.5 49.397 0.5 32Z" stroke="#0A0A0A" stroke-opacity="0.05"/>
<path d="M21.4639 26.4215C21.4639 32.1533 26.1535 36.8429 31.8853 36.8429C37.6171 36.8429 42.3068 32.1533 42.3068 26.4215C42.3068 20.6897 37.6171 16 31.8853 16C26.1535 16 21.4639 20.6897 21.4639 26.4215ZM39.8547 26.4215C39.8547 30.8046 36.2685 34.3908 31.8853 34.3908C27.5022 34.3908 23.916 30.8046 23.916 26.4215C23.916 22.0383 27.5022 18.4521 31.8853 18.4521C36.2685 18.4521 39.8547 22.0383 39.8547 26.4215Z" fill="#D4D4D4"/>
<path d="M18.8754 47.1287C19.3568 47.6101 20.1347 47.6063 20.6486 47.1596C23.7706 44.4459 27.7009 42.9736 31.8851 42.9736C36.0692 42.9736 39.9995 44.4459 43.1215 47.1596C43.6354 47.6063 44.4133 47.6101 44.8947 47.1287C45.3776 46.6458 45.3783 45.8591 44.8648 45.4089C41.2765 42.2622 36.7107 40.5215 31.8851 40.5215C27.0594 40.5215 22.4936 42.2622 18.9053 45.4089C18.3918 45.8591 18.3925 46.6458 18.8754 47.1287Z" fill="#D4D4D4"/>
</svg>
