<svg width="24" height="24" viewBox="0 0 24 24" fill="none" xmlns="http://www.w3.org/2000/svg">
<path d="M12 15C10.4087 15 8.88256 14.3679 7.75734 13.2426C6.63212 12.1174 5.99998 10.5913 5.99998 9C5.99998 7.4087 6.63212 5.88258 7.75734 4.75736C8.88256 3.63214 10.4087 3 12 3C13.5913 3 15.1174 3.63214 16.2426 4.75736C17.3678 5.88258 18 7.4087 18 9C18 10.5913 17.3678 12.1174 16.2426 13.2426C15.1174 14.3679 13.5913 15 12 15ZM12 15L15.4 20.89L16.998 17.657L20.596 17.889L17.196 12M6.80198 12L3.40198 17.89L6.99998 17.657L8.59798 20.889L11.998 15" stroke="#DC3055" stroke-width="1.8" stroke-linecap="round" stroke-linejoin="round"/>
</svg>
