<svg width="36" height="36" viewBox="0 0 36 36" fill="none" xmlns="http://www.w3.org/2000/svg">
<path d="M28.5 9H7.5C6.70435 9 5.94129 9.31607 5.37868 9.87868C4.81607 10.4413 4.5 11.2044 4.5 12V27C4.5 27.7956 4.81607 28.5587 5.37868 29.1213C5.94129 29.6839 6.70435 30 7.5 30H28.5C29.2956 30 30.0587 29.6839 30.6213 29.1213C31.1839 28.5587 31.5 27.7956 31.5 27V12C31.5 11.2044 31.1839 10.4413 30.6213 9.87868C30.0587 9.31607 29.2956 9 28.5 9ZM28.5 9V6M9 9V6M9.75 19.5H14.25M21.75 19.5H26.25M24 17.25V21.75" stroke="#DC3055" stroke-width="2.2" stroke-linecap="round" stroke-linejoin="round"/>
</svg>
