<svg width="21" height="20" viewBox="0 0 21 20" fill="none" xmlns="http://www.w3.org/2000/svg">
<path d="M4.66667 16.6667C4.66667 17.1087 4.84226 17.5326 5.15482 17.8452C5.46738 18.1577 5.89131 18.3333 6.33333 18.3333C6.77536 18.3333 7.19928 18.1577 7.51184 17.8452C7.8244 17.5326 8 17.1087 8 16.6667M4.66667 16.6667C4.66667 16.2246 4.84226 15.8007 5.15482 15.4881C5.46738 15.1756 5.89131 15 6.33333 15C6.77536 15 7.19928 15.1756 7.51184 15.4881C7.8244 15.8007 8 16.2246 8 16.6667M4.66667 16.6667H3V11.6667M8 16.6667H13M13 16.6667C13 17.1087 13.1756 17.5326 13.4882 17.8452C13.8007 18.1577 14.2246 18.3333 14.6667 18.3333C15.1087 18.3333 15.5326 18.1577 15.8452 17.8452C16.1577 17.5326 16.3333 17.1087 16.3333 16.6667M13 16.6667C13 16.2246 13.1756 15.8007 13.4882 15.4881C13.8007 15.1756 14.2246 15 14.6667 15C15.1087 15 15.5326 15.1756 15.8452 15.4881C16.1577 15.8007 16.3333 16.2246 16.3333 16.6667M16.3333 16.6667H18V13.3333C18 12.8913 17.8244 12.4674 17.5118 12.1548C17.1993 11.8423 16.7754 11.6667 16.3333 11.6667H15.5M3 11.6667L4.66667 7.49999H12.1667L15.5 11.6667M3 11.6667H15.5M10.5 11.6667V7.49999M3 4.99999L10.5 1.66666L18 4.99999" stroke="#737373" stroke-width="1.8" stroke-linecap="round" stroke-linejoin="round"/>
</svg>
