<svg width="11" height="19" viewBox="0 0 11 19" fill="none" xmlns="http://www.w3.org/2000/svg">
<rect width="10" height="7.5" transform="translate(0 0.25)" fill="white"/>
<path fill-rule="evenodd" clip-rule="evenodd" d="M0 2.75H10V0.25H0V2.75Z" fill="#04AAC8"/>
<path fill-rule="evenodd" clip-rule="evenodd" d="M0 7.75H10V5.25H0V7.75Z" fill="#23C840"/>
<rect width="10" height="0.178571" transform="translate(0 2.75)" fill="#FF0000"/>
<rect width="10" height="0.178571" transform="translate(0 5.25)" fill="#FF0000"/>
<path fill-rule="evenodd" clip-rule="evenodd" d="M1.66643 2.15465C1.81332 2.15465 1.94985 2.11031 2.06337 2.03429C2.05022 2.03516 2.03695 2.0356 2.02358 2.0356C1.69484 2.0356 1.42834 1.7691 1.42834 1.44036C1.42834 1.11162 1.69484 0.845122 2.02358 0.845122C2.03695 0.845122 2.05022 0.845563 2.06337 0.846431C1.94985 0.770411 1.81332 0.726074 1.66643 0.726074C1.27195 0.726074 0.952148 1.04587 0.952148 1.44036C0.952148 1.83485 1.27195 2.15465 1.66643 2.15465ZM2.85691 1.91655C2.85691 2.04805 2.75031 2.15465 2.61882 2.15465C2.48732 2.15465 2.38072 2.04805 2.38072 1.91655C2.38072 1.78505 2.48732 1.67846 2.61882 1.67846C2.75031 1.67846 2.85691 1.78505 2.85691 1.91655ZM3.5712 1.20226C3.70269 1.20226 3.80929 1.09567 3.80929 0.964169C3.80929 0.832673 3.70269 0.726074 3.5712 0.726074C3.4397 0.726074 3.3331 0.832673 3.3331 0.964169C3.3331 1.09567 3.4397 1.20226 3.5712 1.20226ZM4.76167 0.964169C4.76167 1.09567 4.65507 1.20226 4.52358 1.20226C4.39208 1.20226 4.28548 1.09567 4.28548 0.964169C4.28548 0.832673 4.39208 0.726074 4.52358 0.726074C4.65507 0.726074 4.76167 0.832673 4.76167 0.964169ZM4.52358 2.15465C4.65507 2.15465 4.76167 2.04805 4.76167 1.91655C4.76167 1.78505 4.65507 1.67846 4.52358 1.67846C4.39208 1.67846 4.28548 1.78505 4.28548 1.91655C4.28548 2.04805 4.39208 2.15465 4.52358 2.15465ZM3.80929 1.91655C3.80929 2.04805 3.70269 2.15465 3.5712 2.15465C3.4397 2.15465 3.3331 2.04805 3.3331 1.91655C3.3331 1.78505 3.4397 1.67846 3.5712 1.67846C3.70269 1.67846 3.80929 1.78505 3.80929 1.91655Z" fill="white"/>
<path d="M4.704 17.894C4.704 17.942 4.68533 17.966 4.648 17.966H3.728C3.67467 17.966 3.648 17.942 3.648 17.894V17.63C3.65333 17.6087 3.656 17.5873 3.656 17.566C3.656 17.5447 3.656 17.5287 3.656 17.518C3.656 17.406 3.616 17.35 3.536 17.35C3.33867 17.526 3.104 17.6833 2.832 17.822C2.56 17.9607 2.264 18.03 1.944 18.03C1.512 18.03 1.14133 17.8647 0.832 17.534C0.528 17.2087 0.376 16.8433 0.376 16.438V10.958C0.376 10.9047 0.408 10.878 0.472 10.878H1.392C1.45067 10.878 1.48 10.8993 1.48 10.942V16.134C1.48 16.326 1.536 16.4833 1.648 16.606C1.80267 16.7767 2.04533 16.862 2.376 16.862C2.74933 16.862 3.05067 16.718 3.28 16.43C3.49333 16.1633 3.6 15.8433 3.6 15.47V11.054C3.6 11.0167 3.6 10.9767 3.6 10.934C3.61067 10.8967 3.63733 10.878 3.68 10.878H4.648C4.68533 10.878 4.704 10.9047 4.704 10.958V17.894ZM10.0154 17.926C10.0154 17.99 9.9781 18.022 9.90344 18.022H5.56744C5.50344 18.022 5.47144 17.998 5.47144 17.95V16.926C5.47144 16.8993 5.47144 16.8753 5.47144 16.854C5.47677 16.8327 5.48744 16.8113 5.50344 16.79C5.66344 16.534 5.9781 16.038 6.44744 15.302C6.7941 14.7633 7.25277 14.0487 7.82344 13.158C8.30344 12.4113 8.5621 12.0113 8.59944 11.958C8.62077 11.926 8.63144 11.902 8.63144 11.886C8.63144 11.854 8.58877 11.838 8.50344 11.838H5.63944C5.54877 11.838 5.50344 11.8033 5.50344 11.734V11.022C5.50344 10.942 5.53544 10.902 5.59944 10.902H9.82344C9.9301 10.902 9.98344 10.9527 9.98344 11.054V11.838C9.98344 11.8593 9.98077 11.878 9.97544 11.894C9.9701 11.91 9.96477 11.9233 9.95944 11.934C9.8421 12.1473 9.7701 12.278 9.74344 12.326C9.63677 12.502 9.46077 12.766 9.21544 13.118C9.19944 13.1393 8.96477 13.4993 8.51144 14.198C8.1541 14.7473 7.7861 15.3207 7.40744 15.918C7.02877 16.51 6.83944 16.8247 6.83944 16.862C6.83944 16.926 6.8661 16.958 6.91944 16.958H9.90344C9.9781 16.958 10.0154 16.9847 10.0154 17.038V17.926Z" fill="#04AAC8"/>
</svg>
