<svg width="21" height="20" viewBox="0 0 21 20" fill="none" xmlns="http://www.w3.org/2000/svg">
<path d="M4.66667 14.1667C4.66667 14.6087 4.84226 15.0326 5.15482 15.3452C5.46738 15.6577 5.89131 15.8333 6.33333 15.8333C6.77536 15.8333 7.19928 15.6577 7.51184 15.3452C7.8244 15.0326 8 14.6087 8 14.1667M4.66667 14.1667C4.66667 13.7246 4.84226 13.3007 5.15482 12.9882C5.46738 12.6756 5.89131 12.5 6.33333 12.5C6.77536 12.5 7.19928 12.6756 7.51184 12.9882C7.8244 13.3007 8 13.7246 8 14.1667M4.66667 14.1667H3V9.16667M8 14.1667H13M13 14.1667C13 14.6087 13.1756 15.0326 13.4882 15.3452C13.8007 15.6577 14.2246 15.8333 14.6667 15.8333C15.1087 15.8333 15.5326 15.6577 15.8452 15.3452C16.1577 15.0326 16.3333 14.6087 16.3333 14.1667M13 14.1667C13 13.7246 13.1756 13.3007 13.4882 12.9882C13.8007 12.6756 14.2246 12.5 14.6667 12.5C15.1087 12.5 15.5326 12.6756 15.8452 12.9882C16.1577 13.3007 16.3333 13.7246 16.3333 14.1667M16.3333 14.1667H18V10.8333C18 10.3913 17.8244 9.96738 17.5118 9.65482C17.1993 9.34226 16.7754 9.16667 16.3333 9.16667H15.5M3 9.16667L4.66667 5H12.1667L15.5 9.16667M3 9.16667H15.5M10.5 9.16667V5" stroke="#737373" stroke-width="1.8" stroke-linecap="round" stroke-linejoin="round"/>
</svg>
