<svg width="744" height="160" viewBox="0 0 744 160" fill="none" xmlns="http://www.w3.org/2000/svg">
<g opacity="0.2">
<path d="M380.501 146.289H380.001V144.256H380.501V142.224H380.001V140.191H380.501V138.158H380.001V136.125H380.501V134.092H380.001V132.059H380.501V130.026H380.001V127.993H380.501V125.96H380.001V123.927H380.501V121.894H380.001V119.861H380.501V117.828H380.001V115.795H380.501V113.762H380.001V111.73H380.501V109.697H380.001V107.664H380.501V105.631H380.001V103.598H380.501V101.565H380.001V99.532H380.501V97.499H380.001V95.4661H380.501V93.4332H380.001V91.4002H380.501V89.3673H380.001V87.3344H380.501V85.3014H380.001V83.2685H380.501V81.2356H380.001V79.2026H380.501V77.1697H380.001V75.1367H380.501V73.1038H380.001V71.0709H380.501V69.0379H380.001V67.005H380.501V64.9721H380.001V62.9391H380.501V60.9062H380.001V58.8733H380.501V56.8403H380.001V54.8074H380.501V52.7745H380.001V50.7415H380.501V48.7086H380.001V46.6756H380.501V44.6427H380.001V42.6098H380.501V40.5768H380.001V38.5439H380.501V36.511H380.001V34.478H380.501V32.4451H380.001V30.4122H380.501V28.3792H380.001V26.3463H380.501V25.5974C380.71 25.4576 380.92 25.3183 381.129 25.1794L380.853 24.7627C381.421 24.3861 381.988 24.0124 382.555 23.6417L382.829 24.0601C383.394 23.69 383.96 23.3228 384.524 22.9585L384.253 22.5384C384.818 22.1735 385.383 21.8116 385.947 21.4526L386.216 21.8744C386.779 21.5159 387.342 21.1604 387.904 20.8077L387.638 20.3842C388.201 20.0309 388.763 19.6806 389.325 19.3331L389.588 19.7583C390.156 19.4071 390.723 19.0588 391.289 18.7135L391.029 18.2866C391.611 17.9318 392.192 17.58 392.773 17.2313L393.03 17.6599C393.61 17.3118 394.189 16.9666 394.768 16.6245L394.513 16.1942C395.093 15.8515 395.671 15.5118 396.25 15.1752L396.501 15.6073C397.078 15.2712 397.655 14.9381 398.231 14.6079L397.982 14.1742C398.559 13.8435 399.135 13.5157 399.711 13.191L399.957 13.6264C400.539 13.2979 401.121 12.9724 401.701 12.6499L401.459 12.2128C402.054 11.8824 402.649 11.5551 403.243 11.231L403.482 11.6699C404.075 11.3463 404.667 11.0259 405.259 10.7085L405.022 10.2679C405.615 9.94998 406.207 9.63514 406.798 9.32337L407.031 9.76565C407.622 9.45444 408.211 9.14629 408.8 8.84118L408.57 8.39722C409.16 8.09155 409.749 7.78893 410.338 7.48932L410.565 7.93493C411.165 7.62956 411.764 7.32734 412.363 7.02822L412.14 6.58093C412.747 6.27747 413.354 5.9772 413.96 5.68011L414.18 6.12907C414.785 5.83253 415.389 5.53914 415.993 5.2489L415.776 4.79828C416.381 4.50749 416.985 4.21984 417.589 3.9353L417.802 4.38755C418.404 4.10355 419.006 3.82266 419.607 3.54485L419.397 3.09099C420.001 2.81208 420.603 2.53627 421.205 2.26353L421.412 2.71898C422.03 2.43875 422.648 2.16176 423.266 1.88799L423.063 1.43092C423.681 1.15662 424.299 0.885534 424.916 0.61764L425.115 1.07629C425.731 0.808922 426.347 0.544739 426.961 0.283709L426.766 -0.176508C427.382 -0.438053 427.997 -0.69644 428.611 -0.951698L428.803 -0.489948C429.416 -0.744701 430.029 -0.99633 430.641 -1.24487L430.453 -1.70812C431.078 -1.96204 431.703 -2.21273 432.327 -2.46024L432.511 -1.99547C433.139 -2.24474 433.767 -2.49076 434.394 -2.73358L434.214 -3.19983C434.842 -3.44314 435.469 -3.68324 436.096 -3.92016L436.273 -3.45244C436.899 -3.68887 437.524 -3.92214 438.148 -4.15226L437.975 -4.62141C438.601 -4.852 439.226 -5.07945 439.85 -5.30379L440.019 -4.83324C440.65 -5.05971 441.279 -5.28301 441.908 -5.50316L441.743 -5.97509C442.383 -6.19887 443.021 -6.41941 443.659 -6.63675L443.821 -6.16345C444.457 -6.38034 445.093 -6.59403 445.729 -6.80455L445.572 -7.27918C446.208 -7.49015 446.844 -7.69794 447.48 -7.90261L447.633 -7.42668C448.267 -7.63092 448.901 -7.83203 449.534 -8.03005L449.384 -8.50724C450.024 -8.70726 450.662 -8.90413 451.3 -9.0979L451.445 -8.61948C452.092 -8.81579 452.738 -9.00891 453.383 -9.19886L453.241 -9.6785C453.888 -9.86886 454.534 -10.056 455.179 -10.2401L455.316 -9.7593C455.96 -9.94297 456.603 -10.1235 457.245 -10.301L457.112 -10.783C457.756 -10.9608 458.399 -11.1356 459.042 -11.3073L459.171 -10.8242C459.817 -10.9968 460.462 -11.1664 461.107 -11.3328L460.982 -11.817C461.637 -11.986 462.291 -12.1519 462.944 -12.3147L463.065 -11.8295C463.717 -11.992 464.368 -12.1513 465.019 -12.3076L464.902 -12.7938C465.554 -12.9504 466.206 -13.104 466.857 -13.2546L466.97 -12.7675C467.619 -12.9178 468.268 -13.065 468.916 -13.2093L468.808 -13.6974C469.463 -13.8432 470.118 -13.986 470.772 -14.1258L470.876 -13.6369C471.535 -13.7777 472.193 -13.9155 472.85 -14.0504L472.75 -14.5402C473.409 -14.6753 474.067 -14.8074 474.725 -14.9366L474.821 -14.4459C475.478 -14.5748 476.133 -14.7008 476.789 -14.8239L476.696 -15.3153C477.353 -15.4386 478.009 -15.559 478.664 -15.6766L478.753 -15.1844C479.413 -15.3029 480.074 -15.4186 480.733 -15.5313L480.649 -16.0241C481.313 -16.1377 481.977 -16.2483 482.64 -16.3561L482.72 -15.8625C483.382 -15.9701 484.043 -16.0748 484.704 -16.1767L484.628 -16.6709C485.29 -16.773 485.951 -16.8723 486.612 -16.9688L486.685 -16.474C487.344 -16.5704 488.003 -16.6639 488.662 -16.7548L488.593 -17.2501C489.261 -17.3423 489.929 -17.4316 490.595 -17.5182L490.66 -17.0224C491.326 -17.1089 491.991 -17.1927 492.656 -17.2737L492.595 -17.7701C493.262 -17.8513 493.927 -17.9298 494.592 -18.0057L494.649 -17.509C495.313 -17.5847 495.976 -17.6578 496.639 -17.7283L496.586 -18.2255C497.252 -18.2964 497.918 -18.3646 498.583 -18.4303L498.632 -17.9327C499.301 -17.9988 499.969 -18.0622 500.637 -18.1231L500.592 -18.621C501.261 -18.682 501.93 -18.7405 502.598 -18.7964L502.639 -18.2981C503.306 -18.354 503.973 -18.4073 504.639 -18.4582L504.601 -18.9567C505.268 -19.0077 505.935 -19.0562 506.601 -19.1023L506.636 -18.6035C507.304 -18.6497 507.973 -18.6936 508.641 -18.735L508.61 -19.2341C509.281 -19.2757 509.951 -19.3149 510.622 -19.3518L510.649 -18.8526C511.318 -18.8894 511.987 -18.9239 512.655 -18.956L512.631 -19.4555C513.3 -19.4877 513.969 -19.5176 514.637 -19.5453L514.658 -19.0457C515.326 -19.0734 515.993 -19.0988 516.66 -19.122L516.643 -19.6217C517.315 -19.645 517.986 -19.6662 518.657 -19.6851L518.672 -19.1853C519.342 -19.2043 520.011 -19.221 520.681 -19.2356L520.67 -19.7355C521.34 -19.7502 522.011 -19.7627 522.68 -19.7731L522.688 -19.2732C523.357 -19.2836 524.025 -19.292 524.693 -19.2983L524.688 -19.7983C525.359 -19.8046 526.03 -19.809 526.7 -19.8113L526.701 -19.3113C527.372 -19.3136 528.042 -19.314 528.712 -19.3124L528.713 -19.8124C529.384 -19.8108 530.055 -19.8072 530.725 -19.8018L530.721 -19.3018C531.39 -19.2964 532.06 -19.2891 532.728 -19.2799L532.735 -19.7798C533.405 -19.7707 534.074 -19.7597 534.743 -19.7469L534.734 -19.247C535.404 -19.2341 536.074 -19.2195 536.744 -19.2031L536.757 -19.703C537.427 -19.6866 538.098 -19.6684 538.768 -19.6486L538.753 -19.1488C539.423 -19.129 540.092 -19.1075 540.761 -19.0844L540.778 -19.5841C541.448 -19.5609 542.118 -19.5361 542.787 -19.5096L542.767 -19.01C543.436 -18.9836 544.105 -18.9556 544.774 -18.926L544.796 -19.4256C545.466 -19.3959 546.137 -19.3648 546.807 -19.3321L546.782 -18.8327C547.451 -18.8001 548.12 -18.766 548.789 -18.7304L548.816 -19.2297C549.485 -19.1941 550.154 -19.1571 550.823 -19.1186L550.795 -18.6194C551.463 -18.5811 552.131 -18.5413 552.799 -18.5002L552.83 -18.9992C553.499 -18.958 554.169 -18.9155 554.838 -18.8716L554.805 -18.3727C555.474 -18.3289 556.142 -18.2838 556.811 -18.2375L556.845 -18.7363C557.514 -18.6899 558.183 -18.6424 558.852 -18.5936L558.815 -18.0949C559.483 -18.0462 560.151 -17.9963 560.819 -17.9452L560.857 -18.4438C561.525 -18.3927 562.194 -18.3404 562.862 -18.2871L562.822 -17.7887C563.49 -17.7355 564.158 -17.6811 564.826 -17.6257L564.867 -18.124C565.535 -18.0686 566.203 -18.0122 566.871 -17.9547L566.829 -17.4566C567.496 -17.3992 568.163 -17.3409 568.831 -17.2816L568.875 -17.7796C569.543 -17.7203 570.211 -17.6601 570.878 -17.5991L570.833 -17.1011C571.5 -17.0401 572.167 -16.9782 572.834 -16.9155L572.881 -17.4133C573.548 -17.3505 574.216 -17.287 574.883 -17.2226L574.835 -16.7249C575.502 -16.6607 576.169 -16.5956 576.836 -16.5299L576.885 -17.0274C577.552 -16.9617 578.22 -16.8952 578.887 -16.828L578.837 -16.3305C579.503 -16.2635 580.17 -16.1957 580.837 -16.1274L580.888 -16.6248C581.555 -16.5564 582.221 -16.4875 582.888 -16.418L582.836 -15.9207C583.503 -15.8512 584.169 -15.7812 584.836 -15.7107L584.889 -16.2079C585.555 -16.1374 586.222 -16.0663 586.889 -15.9949L586.836 -15.4977C587.502 -15.4263 588.169 -15.3544 588.836 -15.2822L588.889 -15.7792C589.556 -15.707 590.222 -15.6344 590.888 -15.5615L590.834 -15.0645C591.5 -14.9916 592.166 -14.9183 592.832 -14.8448L592.887 -15.3418C593.554 -15.2682 594.22 -15.1944 594.887 -15.1203L594.831 -14.6234C595.498 -14.5494 596.164 -14.4751 596.831 -14.4007L596.886 -14.8976C597.552 -14.8232 598.219 -14.7486 598.885 -14.6739L598.829 -14.177L600.827 -13.9528L600.883 -14.4497C601.549 -14.3749 602.215 -14.3 602.882 -14.2251L602.826 -13.7282L604.825 -13.5035L604.881 -14.0004C605.548 -13.9255 606.215 -13.8506 606.881 -13.7759L606.826 -13.279C607.491 -13.2044 608.157 -13.1298 608.823 -13.0554L608.879 -13.5523C609.545 -13.4779 610.211 -13.4037 610.877 -13.3296L610.822 -12.8327C611.488 -12.7586 612.155 -12.6848 612.822 -12.6111L612.877 -13.1081C613.543 -13.0345 614.21 -12.9611 614.877 -12.8881L614.823 -12.391C615.489 -12.318 616.156 -12.2453 616.823 -12.173L616.877 -12.6701C617.543 -12.5978 618.209 -12.5259 618.875 -12.4544L618.822 -11.9572C619.488 -11.8857 620.155 -11.8146 620.822 -11.7439L620.875 -12.2411C621.542 -12.1705 622.209 -12.1003 622.876 -12.0306L622.824 -11.5333C623.492 -11.4636 624.16 -11.3944 624.828 -11.3257L624.879 -11.8231C625.545 -11.7546 626.211 -11.6867 626.878 -11.6195L626.828 -11.122C627.494 -11.0547 628.162 -10.988 628.829 -10.9219L628.878 -11.4195C629.545 -11.3535 630.213 -11.2881 630.88 -11.2235L630.832 -10.7258C631.5 -10.6611 632.169 -10.5971 632.837 -10.5339L632.884 -11.0317C633.551 -10.9686 634.219 -10.9063 634.887 -10.8448L634.841 -10.3469C635.508 -10.2854 636.176 -10.2248 636.844 -10.165L636.888 -10.663C637.556 -10.6032 638.223 -10.5444 638.891 -10.4864L638.848 -9.98825C639.517 -9.93024 640.185 -9.87313 640.855 -9.81699L640.897 -10.3152C641.565 -10.2591 642.234 -10.204 642.904 -10.1499L642.863 -9.65148C643.531 -9.59749 644.199 -9.54451 644.868 -9.49258L644.906 -9.99108C645.574 -9.93921 646.242 -9.8884 646.91 -9.83869L646.873 -9.34007C647.542 -9.29032 648.212 -9.24168 648.881 -9.19419L648.917 -9.69294C649.586 -9.6455 650.255 -9.59921 650.925 -9.55413L650.892 -9.05526C651.561 -9.01021 652.231 -8.96636 652.902 -8.92376L652.933 -9.42276C653.601 -9.38033 654.269 -9.33914 654.938 -9.29926L654.908 -8.80015C655.578 -8.76022 656.247 -8.72159 656.917 -8.68431L656.945 -9.18354C657.615 -9.14629 658.284 -9.11039 658.955 -9.07589L658.929 -8.57655C659.6 -8.54201 660.272 -8.50887 660.944 -8.47717L660.967 -8.97662C661.636 -8.94509 662.305 -8.91499 662.974 -8.88637L662.953 -8.38682C663.622 -8.35822 664.292 -8.33109 664.962 -8.30549L664.981 -8.80512C665.651 -8.77955 666.321 -8.75551 666.991 -8.73304L666.975 -8.23332C667.646 -8.21083 668.318 -8.18992 668.99 -8.17063L669.004 -8.67043C669.675 -8.65118 670.346 -8.63356 671.018 -8.61761L671.006 -8.11776C671.675 -8.10188 672.345 -8.08765 673.015 -8.07513L673.024 -8.57504C673.693 -8.56254 674.363 -8.55174 675.033 -8.54269L675.027 -8.04273C675.698 -8.03367 676.369 -8.02636 677.042 -8.02085L677.046 -8.52083C677.717 -8.51533 678.389 -8.51162 679.061 -8.50976L679.06 -8.00977C679.396 -8.00883 679.733 -8.00837 680.07 -8.00837H681.064V-8.50837H683.053V-8.00837H685.041V-8.50837H687.029V-8.00837H689.018V-8.50837H691.006V-8.00837H692.994V-8.50837H694.983V-8.00837H696.971V-8.50837H698.959V-8.00837H700.948V-8.50837H702.936V-8.00837H704.924V-8.50837H706.913V-8.00837H708.901V-8.50837H710.889V-8.00837H712.878V-8.50837H714.866V-8.00837H716.854V-8.50837H718.843V-8.00837H720.831V-8.50837H722.819V-8.00837H724.808V-8.50837H726.796V-8.00837H728.785V-8.50837H730.773V-8.00837H732.761V-8.50837H734.75V-8.00837H736.738V-8.50837H738.726V-8.00837H740.715V-8.50837H742.703V-8.00837H744.691V-8.50837H746.68V-8.00837H748.668V-8.50837H750.656V-8.00837H752.645V-8.50837H754.633V-8.00837H756.621V-8.50837H758.61V-8.00837H760.598V-8.50837H762.586V-8.00837H764.575V-8.50837H766.563V-8.00837H768.551V-8.50837H770.54V-8.00837H772.528V-8.50837H774.516V-8.00837H776.505V-8.50837H778.493V-8.00837H778.987V-7.4919H779.487V-5.45897H778.987V-3.42603H779.487V-1.3931H778.987V0.639835H779.487V2.67277H778.987V4.70571H779.487V6.73864H778.987V8.77157H779.487V10.8045H778.987V12.8374H779.487V14.8704H778.987V16.9033H779.487V18.9362H778.987V20.9692H779.487V23.0021H778.987V25.035H779.487V27.068H778.987V29.1009H779.487V31.1338H778.987V33.1668H779.487V35.1997H778.987V37.2326H779.487V39.2656H778.987V41.2985H779.487V43.3314H778.987V45.3644H779.487V47.3973H778.987V49.4302H779.487V51.4632H778.987V53.4961H779.487V55.529H778.987V57.562H779.487V59.5949H778.987V61.6278H779.487V63.6608H778.987V65.6937H779.487V67.7266H778.987V69.7596H779.487V71.7925H778.987V73.8255H779.487V75.8584H778.987V77.8913H779.487V79.9243H778.987V81.9572H779.487V83.9901H778.987V86.0231H779.487V88.056H778.987V90.0889H779.487V92.1219H778.987V94.1548H779.487V96.1878H778.987V98.2207H779.487V100.254H778.987V102.287H779.487V104.319H778.987V106.352H779.487V108.385H778.987V110.418H779.487V112.451H778.987V112.968H778.503V113.468H776.536V112.968H774.568V113.468H772.6V112.968H770.632V113.468H768.664V112.968H766.696V113.468H764.729V112.968H762.761V113.468H760.793V112.968H758.825V113.468H756.857V112.968H754.889V113.468H752.922V112.968H750.954V113.468H748.986V112.968H747.018V113.468H745.05V112.968H743.082V113.468H741.114V112.968H739.147V113.468H737.179V112.968H735.211V113.468H733.243V112.968H731.275V113.468H729.307V112.968H727.34V113.468H725.372V112.968H723.404V113.468H721.436V112.968H719.468V113.468H717.5V112.968H715.533V113.468H713.565V112.968H711.597V113.468H709.629V112.968H707.661V113.468H705.693V112.968H703.726V113.468H701.758V112.968H699.79V113.468H697.822V112.968H695.854V113.468H693.886V112.968H691.919V113.468H689.951V112.968H687.983V113.468H686.015V112.968H684.047V113.468H682.079V112.968H681.095C680.939 112.968 680.782 112.968 680.625 112.967C680.446 112.967 680.268 112.967 680.089 112.967L680.088 113.467C679.417 113.465 678.747 113.462 678.078 113.458L678.081 112.958C677.412 112.954 676.745 112.948 676.078 112.941L676.073 113.441C675.405 113.434 674.738 113.426 674.072 113.417L674.079 112.917C673.414 112.907 672.75 112.896 672.086 112.884L672.077 113.384C671.406 113.372 670.737 113.358 670.068 113.344L670.079 112.844C669.41 112.829 668.741 112.813 668.073 112.796L668.061 113.296C667.392 113.279 666.725 113.26 666.058 113.24L666.072 112.741C665.406 112.721 664.741 112.7 664.076 112.679L664.059 113.178C663.393 113.156 662.727 113.133 662.062 113.109L662.08 112.609C661.41 112.585 660.741 112.56 660.073 112.533L660.053 113.033C659.384 113.006 658.716 112.979 658.049 112.95L658.07 112.451C657.403 112.422 656.737 112.393 656.072 112.362L656.049 112.861C655.383 112.831 654.717 112.799 654.053 112.767L654.077 112.267C653.409 112.235 652.742 112.201 652.076 112.167L652.05 112.666C651.381 112.631 650.713 112.596 650.045 112.559L650.072 112.06C649.405 112.024 648.738 111.986 648.073 111.948L648.044 112.447C647.378 112.409 646.712 112.37 646.047 112.33L646.076 111.831C645.411 111.792 644.747 111.751 644.083 111.71L644.051 112.209C643.383 112.167 642.714 112.125 642.047 112.082L642.079 111.583C641.411 111.54 640.745 111.496 640.078 111.452L640.045 111.951C639.379 111.906 638.713 111.861 638.047 111.815L638.081 111.316C637.416 111.271 636.752 111.224 636.087 111.177L636.052 111.676C635.385 111.629 634.719 111.581 634.053 111.533L634.089 111.034C633.422 110.986 632.755 110.937 632.088 110.888L632.052 111.386C631.385 111.337 630.719 111.287 630.053 111.237L630.091 110.738C629.425 110.688 628.76 110.637 628.096 110.586L628.057 111.084C627.392 111.033 626.727 110.981 626.063 110.929L626.102 110.431C625.435 110.378 624.768 110.326 624.102 110.273L624.062 110.771C623.395 110.718 622.729 110.665 622.063 110.611L622.103 110.113C621.819 110.09 621.536 110.067 621.252 110.044C620.87 110.013 620.489 109.982 620.107 109.951L620.067 110.45C619.402 110.395 618.737 110.341 618.073 110.287L618.114 109.788C617.447 109.734 616.782 109.679 616.116 109.624L616.075 110.122C615.408 110.067 614.742 110.011 614.076 109.956L614.118 109.458C613.452 109.402 612.786 109.347 612.121 109.291L612.079 109.79C611.414 109.734 610.749 109.678 610.084 109.623L610.126 109.125L608.131 108.958L608.089 109.456C607.422 109.4 606.756 109.344 606.09 109.289L606.132 108.79L604.134 108.624L604.093 109.122C603.427 109.066 602.762 109.011 602.097 108.956L602.138 108.458C601.473 108.402 600.808 108.347 600.143 108.293L600.102 108.791C599.435 108.736 598.769 108.681 598.104 108.627L598.144 108.128C597.478 108.074 596.812 108.02 596.146 107.966L596.106 108.464C595.44 108.41 594.774 108.357 594.109 108.304L594.148 107.805C593.483 107.752 592.817 107.699 592.151 107.647L592.112 108.145C591.446 108.093 590.78 108.041 590.115 107.989L590.153 107.491C589.487 107.439 588.821 107.388 588.154 107.337L588.116 107.836C587.45 107.785 586.784 107.735 586.118 107.685L586.155 107.186C585.489 107.137 584.823 107.088 584.157 107.039L584.12 107.538C583.454 107.489 582.788 107.441 582.122 107.394L582.158 106.895C581.491 106.848 580.824 106.801 580.158 106.755L580.123 107.254C579.457 107.208 578.791 107.163 578.124 107.118L578.158 106.619C577.491 106.575 576.824 106.531 576.157 106.488L576.125 106.986C575.458 106.943 574.792 106.901 574.125 106.86L574.156 106.361C573.489 106.319 572.822 106.278 572.155 106.239L572.125 106.738C571.459 106.698 570.792 106.659 570.126 106.621L570.154 106.122C569.487 106.084 568.82 106.047 568.152 106.011L568.125 106.51C567.458 106.474 566.791 106.439 566.124 106.405L566.149 105.905C565.481 105.871 564.814 105.838 564.146 105.806L564.122 106.305C563.455 106.273 562.789 106.242 562.122 106.212L562.144 105.713C561.477 105.683 560.809 105.654 560.141 105.627L560.121 106.126C559.453 106.098 558.786 106.072 558.118 106.047L558.137 105.547C557.468 105.522 556.8 105.498 556.13 105.475L556.113 105.974C555.447 105.952 554.78 105.93 554.112 105.91L554.128 105.41C553.46 105.389 552.793 105.37 552.125 105.353L552.111 105.852C551.444 105.835 550.776 105.818 550.108 105.803L550.119 105.303C549.451 105.288 548.781 105.275 548.112 105.262L548.103 105.762C547.435 105.75 546.767 105.739 546.098 105.73L546.105 105.23C545.438 105.22 544.771 105.212 544.103 105.206L544.098 105.706C543.431 105.699 542.764 105.694 542.096 105.691L542.098 105.191C541.429 105.187 540.76 105.185 540.091 105.185L540.09 105.685C539.421 105.685 538.752 105.686 538.082 105.689L538.08 105.189C537.413 105.192 536.746 105.196 536.078 105.202L536.083 105.702C535.416 105.708 534.75 105.716 534.082 105.725L534.075 105.225C533.407 105.235 532.738 105.246 532.069 105.258L532.078 105.758C531.41 105.771 530.741 105.786 530.071 105.802L530.059 105.302C529.391 105.318 528.722 105.336 528.053 105.356L528.067 105.856C527.402 105.876 526.736 105.897 526.07 105.92L526.052 105.421C525.385 105.444 524.717 105.469 524.049 105.496L524.069 105.996C523.402 106.023 522.733 106.052 522.065 106.082L522.042 105.583C521.372 105.614 520.702 105.647 520.031 105.681L520.056 106.181C519.392 106.215 518.728 106.251 518.062 106.29L518.034 105.79C517.368 105.829 516.702 105.869 516.035 105.911L516.066 106.41C515.4 106.452 514.734 106.496 514.067 106.543L514.032 106.044C513.364 106.09 512.695 106.139 512.025 106.189L512.063 106.688C511.397 106.738 510.73 106.79 510.062 106.844L510.022 106.346C509.359 106.4 508.695 106.456 508.03 106.514L508.074 107.012C507.41 107.07 506.746 107.131 506.081 107.193L506.034 106.695C505.368 106.758 504.702 106.822 504.034 106.889L504.084 107.387C503.417 107.453 502.75 107.522 502.082 107.593L502.029 107.096C501.367 107.167 500.703 107.24 500.039 107.315L500.095 107.811C499.435 107.886 498.774 107.963 498.112 108.042L498.053 107.545C497.39 107.625 496.726 107.706 496.062 107.79L496.124 108.286C495.461 108.37 494.797 108.455 494.132 108.544L494.066 108.048C493.4 108.136 492.733 108.227 492.065 108.32L492.134 108.815C491.478 108.907 490.822 109 490.164 109.096L490.092 108.602C489.433 108.698 488.773 108.796 488.113 108.897L488.188 109.392C487.529 109.492 486.869 109.596 486.208 109.701L486.129 109.207C485.467 109.313 484.804 109.421 484.14 109.532L484.222 110.025C483.562 110.135 482.901 110.247 482.24 110.362L482.155 109.869C481.501 109.982 480.846 110.098 480.191 110.216L480.28 110.708C479.626 110.826 478.97 110.947 478.314 111.07L478.222 110.578C477.565 110.701 476.907 110.827 476.248 110.955L476.344 111.446C475.686 111.574 475.027 111.704 474.367 111.837L474.269 111.346C473.613 111.478 472.957 111.613 472.3 111.75L472.402 112.239C471.754 112.374 471.105 112.512 470.455 112.652L470.35 112.163C469.699 112.303 469.047 112.446 468.394 112.591L468.503 113.079C467.851 113.225 467.198 113.372 466.544 113.522L466.433 113.035C465.778 113.185 465.122 113.338 464.465 113.494L464.581 113.98C463.932 114.134 463.282 114.29 462.631 114.449L462.513 113.963C461.869 114.12 461.225 114.28 460.579 114.442L460.701 114.927C460.056 115.088 459.411 115.253 458.764 115.42L458.639 114.936C457.992 115.103 457.343 115.273 456.694 115.445L456.822 115.928C456.174 116.1 455.524 116.275 454.874 116.452L454.742 115.97C454.097 116.146 453.451 116.324 452.804 116.505L452.939 116.987C452.303 117.165 451.665 117.345 451.027 117.529L450.889 117.048C450.25 117.231 449.61 117.417 448.969 117.606L449.11 118.086C448.47 118.274 447.829 118.465 447.187 118.658L447.042 118.179C446.399 118.373 445.755 118.57 445.11 118.769L445.257 119.246C444.617 119.444 443.975 119.644 443.333 119.847L443.182 119.37C442.552 119.569 441.921 119.77 441.29 119.974L441.443 120.45C440.812 120.654 440.181 120.86 439.548 121.069L439.391 120.594C438.758 120.803 438.123 121.015 437.487 121.229L437.647 121.703C437.012 121.916 436.377 122.133 435.74 122.352L435.577 121.879C434.939 122.099 434.301 122.321 433.661 122.546L433.827 123.017C433.204 123.236 432.58 123.458 431.955 123.682L431.786 123.211C431.163 123.434 430.539 123.66 429.914 123.889L430.085 124.358C429.461 124.586 428.836 124.817 428.209 125.05L428.035 124.582C427.407 124.815 426.779 125.052 426.15 125.29L426.327 125.758C425.699 125.996 425.07 126.237 424.439 126.481L424.259 126.015C423.635 126.256 423.01 126.5 422.384 126.746L422.567 127.211C421.954 127.453 421.34 127.696 420.725 127.943L420.539 127.478C419.923 127.725 419.306 127.974 418.688 128.226L418.877 128.689C418.26 128.94 417.642 129.194 417.023 129.45L416.832 128.988C416.212 129.245 415.591 129.505 414.969 129.766L415.163 130.227C414.542 130.489 413.92 130.753 413.298 131.02L413.101 130.56C412.491 130.821 411.88 131.084 411.269 131.35L411.468 131.809C410.863 132.072 410.258 132.337 409.651 132.605L409.449 132.148C408.842 132.416 408.233 132.687 407.624 132.96L407.828 133.417C407.219 133.689 406.61 133.965 405.999 134.243L405.792 133.788C405.181 134.066 404.568 134.347 403.955 134.63L404.164 135.084C403.552 135.367 402.938 135.652 402.323 135.94L402.111 135.488C401.513 135.768 400.915 136.05 400.315 136.335L400.53 136.787C399.934 137.07 399.337 137.356 398.74 137.643L398.523 137.193C397.924 137.481 397.325 137.772 396.725 138.065L396.944 138.514C396.345 138.807 395.744 139.102 395.143 139.4L394.921 138.952C394.319 139.25 393.715 139.55 393.111 139.853L393.335 140.3C392.732 140.603 392.127 140.908 391.522 141.215L391.296 140.77C390.706 141.069 390.116 141.371 389.525 141.675L389.753 142.119C389.167 142.421 388.581 142.724 387.993 143.03L387.762 142.587C387.173 142.893 386.584 143.202 385.994 143.513L386.227 143.956C385.637 144.266 385.047 144.579 384.455 144.895L384.22 144.454C383.627 144.77 383.034 145.088 382.44 145.408L382.678 145.848C382.084 146.169 381.49 146.491 380.894 146.816L380.655 146.378C380.603 146.406 380.552 146.434 380.501 146.462V146.289Z" stroke="#00A070" stroke-dasharray="2 2"/>
<path d="M379.499 148.276H379.999V150.309H379.499V152.342H379.999V154.375H379.499V156.408H379.999V158.44H379.499V160.473H379.999V162.506H379.499V164.539H379.999V166.572H379.499V168.605H379.999V170.638H379.499V172.671H379.999V174.704H379.499V176.737H379.999V178.77H379.499V180.803H379.999V182.836H379.499V184.869H379.999V186.902H379.499V188.935H379.999V190.967H379.499V193H379.999V195.033H379.499V197.066H379.999V199.099H379.499V201.132H379.999V203.165H379.499V205.198H379.999V207.231H379.499V209.264H379.999V211.297H379.499V213.33H379.999V215.363H379.499V217.396H379.999V219.429H379.499V221.461H379.999V223.494H379.499V225.527H379.999V227.56H379.499V229.593H379.999V231.626H379.499V233.659H379.999V235.692H379.499V237.725H379.999V239.758H379.499V241.791H379.999V243.824H379.499V245.857H379.999V247.89H379.499V249.923H379.999V251.955H379.499V253.988H379.999V256.021H379.499V258.054H379.999V260.087H379.499V262.12H379.999V264.153H379.499V266.186H379.999V268.219H379.499V268.968C379.29 269.108 379.08 269.247 378.871 269.386L379.147 269.803C378.579 270.179 378.012 270.553 377.445 270.924L377.171 270.505C376.606 270.875 376.04 271.242 375.476 271.607L375.747 272.027C375.182 272.392 374.617 272.754 374.053 273.113L373.784 272.691C373.221 273.049 372.658 273.405 372.096 273.758L372.362 274.181C371.799 274.534 371.237 274.885 370.675 275.232L370.412 274.807C369.844 275.158 369.277 275.506 368.711 275.852L368.971 276.279C368.389 276.633 367.808 276.985 367.227 277.334L366.97 276.905C366.39 277.253 365.811 277.599 365.232 277.941L365.487 278.371C364.907 278.714 364.329 279.053 363.75 279.39L363.499 278.958C362.922 279.294 362.345 279.627 361.769 279.957L362.018 280.391C361.441 280.722 360.865 281.05 360.289 281.374L360.043 280.939C359.461 281.267 358.88 281.593 358.299 281.915L358.541 282.352C357.946 282.683 357.351 283.01 356.758 283.334L356.518 282.895C355.925 283.219 355.333 283.539 354.741 283.857L354.978 284.297C354.385 284.615 353.793 284.93 353.202 285.242L352.969 284.8C352.379 285.111 351.789 285.419 351.2 285.724L351.43 286.168C350.84 286.474 350.251 286.776 349.662 287.076L349.435 286.63C348.835 286.936 348.236 287.238 347.637 287.537L347.86 287.984C347.253 288.288 346.646 288.588 346.04 288.885L345.82 288.436C345.215 288.733 344.611 289.026 344.007 289.316L344.224 289.767C343.619 290.058 343.015 290.345 342.411 290.63L342.198 290.178C341.596 290.462 340.994 290.743 340.393 291.02L340.603 291.474C340 291.753 339.397 292.029 338.795 292.302L338.589 291.846C337.97 292.126 337.352 292.403 336.735 292.677L336.937 293.134C336.319 293.409 335.701 293.68 335.084 293.948L334.885 293.489C334.269 293.756 333.654 294.02 333.039 294.281L333.234 294.742C332.619 295.003 332.003 295.262 331.389 295.517L331.197 295.055C330.584 295.31 329.971 295.562 329.359 295.81L329.547 296.273C328.922 296.527 328.297 296.778 327.674 297.025L327.489 296.561C326.861 296.81 326.233 297.056 325.606 297.299L325.787 297.765C325.158 298.008 324.531 298.248 323.904 298.485L323.727 298.018C323.101 298.254 322.476 298.487 321.852 298.717L322.025 299.187C321.399 299.417 320.774 299.645 320.15 299.869L319.981 299.398C319.351 299.625 318.721 299.848 318.092 300.068L318.257 300.54C317.618 300.764 316.979 300.985 316.341 301.202L316.18 300.729C315.543 300.946 314.907 301.159 314.271 301.37L314.429 301.844C313.792 302.055 313.156 302.263 312.52 302.468L312.367 301.992C311.733 302.196 311.099 302.397 310.467 302.595L310.616 303.072C309.977 303.272 309.338 303.469 308.7 303.663L308.555 303.185C307.908 303.381 307.263 303.574 306.618 303.764L306.759 304.244C306.112 304.434 305.467 304.621 304.821 304.805L304.684 304.325C304.04 304.508 303.397 304.689 302.755 304.866L302.888 305.348C302.244 305.526 301.601 305.701 300.958 305.873L300.829 305.389C300.183 305.562 299.538 305.732 298.893 305.898L299.018 306.382C298.363 306.551 297.709 306.717 297.056 306.88L296.935 306.395C296.283 306.557 295.632 306.717 294.981 306.873L295.098 307.359C294.446 307.516 293.794 307.669 293.143 307.82L293.031 307.333C292.381 307.483 291.732 307.63 291.084 307.775L291.192 308.263C290.537 308.408 289.883 308.551 289.229 308.691L289.124 308.202C288.465 308.343 287.807 308.481 287.15 308.616L287.25 309.105C286.591 309.241 285.933 309.373 285.275 309.502L285.179 309.011C284.522 309.14 283.867 309.266 283.211 309.389L283.304 309.881C282.647 310.004 281.991 310.124 281.336 310.242L281.247 309.75C280.587 309.868 279.926 309.984 279.267 310.097L279.351 310.589C278.687 310.703 278.023 310.814 277.36 310.921L277.28 310.428C276.618 310.535 275.957 310.64 275.296 310.742L275.372 311.236C274.71 311.338 274.049 311.438 273.388 311.534L273.316 311.039C272.656 311.136 271.997 311.229 271.338 311.32L271.407 311.815C270.739 311.908 270.071 311.997 269.405 312.083L269.34 311.588C268.674 311.674 268.009 311.758 267.344 311.839L267.405 312.335C266.738 312.417 266.073 312.495 265.408 312.571L265.351 312.074C264.687 312.15 264.024 312.223 263.361 312.294L263.414 312.791C262.748 312.862 262.082 312.93 261.417 312.996L261.368 312.498C260.699 312.564 260.031 312.627 259.363 312.688L259.408 313.186C258.739 313.247 258.07 313.306 257.402 313.362L257.361 312.863C256.694 312.919 256.027 312.973 255.361 313.023L255.399 313.522C254.732 313.573 254.065 313.621 253.399 313.668L253.364 313.169C252.696 313.215 252.027 313.259 251.359 313.3L251.39 313.799C250.719 313.841 250.049 313.88 249.378 313.917L249.351 313.418C248.682 313.455 248.013 313.489 247.345 313.521L247.369 314.021C246.7 314.053 246.031 314.083 245.363 314.111L245.342 313.611C244.674 313.639 244.007 313.664 243.34 313.687L243.357 314.187C242.685 314.21 242.014 314.231 241.343 314.25L241.328 313.751C240.658 313.77 239.988 313.786 239.319 313.801L239.33 314.301C238.66 314.315 237.989 314.328 237.32 314.338L237.312 313.838C236.643 313.849 235.975 313.857 235.307 313.864L235.312 314.364C234.641 314.37 233.97 314.374 233.3 314.377L233.299 313.877C232.628 313.879 231.958 313.879 231.288 313.878L231.287 314.378C230.616 314.376 229.945 314.373 229.275 314.367L229.279 313.867C228.61 313.862 227.94 313.854 227.272 313.845L227.265 314.345C226.595 314.336 225.926 314.325 225.257 314.312L225.266 313.812C224.596 313.799 223.926 313.785 223.256 313.768L223.243 314.268C222.573 314.252 221.902 314.234 221.232 314.214L221.247 313.714C220.577 313.694 219.908 313.673 219.239 313.65L219.222 314.149C218.552 314.126 217.882 314.101 217.213 314.075L217.233 313.575C216.564 313.549 215.895 313.521 215.226 313.491L215.204 313.991C214.534 313.961 213.863 313.93 213.193 313.897L213.218 313.398C212.549 313.365 211.88 313.331 211.211 313.296L211.184 313.795C210.515 313.759 209.846 313.722 209.177 313.684L209.205 313.185C208.537 313.146 207.869 313.107 207.201 313.065L207.17 313.565C206.501 313.523 205.831 313.481 205.162 313.437L205.195 312.938C204.526 312.894 203.858 312.849 203.189 312.803L203.155 313.302C202.486 313.255 201.817 313.208 201.148 313.159L201.185 312.66C200.517 312.611 199.849 312.562 199.181 312.511L199.143 313.009C198.475 312.958 197.806 312.906 197.138 312.852L197.178 312.354C196.51 312.301 195.842 312.246 195.174 312.191L195.133 312.689C194.465 312.634 193.797 312.577 193.129 312.52L193.172 312.022C192.504 311.965 191.837 311.906 191.169 311.847L191.125 312.345C190.457 312.286 189.79 312.225 189.122 312.164L189.167 311.666C188.5 311.605 187.833 311.544 187.166 311.481L187.119 311.979C186.452 311.916 185.784 311.852 185.117 311.788L185.165 311.29C184.498 311.226 183.831 311.161 183.164 311.095L183.115 311.593C182.448 311.527 181.78 311.46 181.113 311.393L181.163 310.896C180.497 310.829 179.83 310.761 179.163 310.693L179.112 311.19C178.445 311.122 177.779 311.053 177.112 310.983L177.164 310.486C176.497 310.417 175.831 310.346 175.164 310.276L175.112 310.773C174.445 310.703 173.778 310.632 173.111 310.56L173.164 310.063C172.498 309.992 171.831 309.92 171.165 309.847L171.111 310.345C170.445 310.272 169.778 310.2 169.112 310.127L169.166 309.63C168.811 309.591 168.456 309.552 168.101 309.513C167.79 309.479 167.479 309.444 167.168 309.41L167.113 309.907C166.447 309.834 165.78 309.76 165.114 309.686L165.169 309.189C164.502 309.115 163.836 309.04 163.169 308.966L163.114 309.463C162.448 309.389 161.781 309.314 161.115 309.239L161.171 308.742L159.173 308.518L159.117 309.015C158.451 308.94 157.785 308.865 157.118 308.79L157.174 308.294L155.175 308.069L155.119 308.566C154.452 308.491 153.786 308.416 153.119 308.341L153.175 307.844C152.804 307.803 152.433 307.761 152.063 307.72C151.767 307.687 151.472 307.654 151.177 307.621L151.121 308.118C150.455 308.043 149.789 307.969 149.123 307.895L149.178 307.398C148.512 307.324 147.845 307.25 147.178 307.176L147.124 307.673C146.457 307.6 145.79 307.526 145.123 307.453L145.177 306.956C144.511 306.883 143.844 306.811 143.178 306.738L143.124 307.235C142.458 307.163 141.791 307.091 141.125 307.02L141.178 306.523C140.512 306.451 139.845 306.38 139.178 306.309L139.125 306.806C138.458 306.736 137.791 306.666 137.124 306.596L137.176 306.099C136.508 306.029 135.841 305.96 135.173 305.891L135.121 306.388C134.455 306.32 133.789 306.252 133.122 306.185L133.173 305.687C132.506 305.62 131.839 305.553 131.171 305.487L131.122 305.985C130.455 305.919 129.788 305.853 129.12 305.789L129.168 305.291C128.5 305.226 127.832 305.162 127.163 305.099L127.116 305.597C126.449 305.534 125.781 305.472 125.113 305.41L125.159 304.912C124.492 304.851 123.824 304.79 123.157 304.73L123.112 305.228C122.445 305.169 121.777 305.11 121.109 305.052L121.152 304.554C120.484 304.496 119.815 304.438 119.145 304.382L119.104 304.881C118.435 304.824 117.766 304.769 117.096 304.715L117.137 304.217C116.469 304.163 115.801 304.11 115.133 304.058L115.094 304.556C114.426 304.505 113.758 304.454 113.09 304.404L113.127 303.905C112.458 303.856 111.789 303.807 111.119 303.76L111.083 304.258C110.414 304.211 109.745 304.165 109.075 304.119L109.108 303.621C108.439 303.576 107.769 303.532 107.098 303.489L107.067 303.988C106.399 303.946 105.731 303.904 105.062 303.865L105.092 303.365C104.423 303.326 103.753 303.287 103.083 303.25L103.055 303.749C102.386 303.712 101.716 303.676 101.045 303.641L101.071 303.142C100.4 303.107 99.7284 303.074 99.0564 303.042L99.0329 303.542C98.3643 303.51 97.6953 303.48 97.0259 303.452L97.0472 302.952C96.3779 302.924 95.7081 302.896 95.0378 302.871L95.0187 303.37C94.3492 303.345 93.6793 303.321 93.0088 303.298L93.0255 302.799C92.3542 302.776 91.6825 302.755 91.0102 302.736L90.9959 303.236C90.325 303.217 89.6536 303.199 88.9818 303.183L88.9936 302.683C88.3247 302.667 87.6552 302.653 86.9851 302.64L86.9758 303.14C86.3066 303.128 85.6369 303.117 84.9667 303.108L84.9734 302.608C84.3023 302.599 83.6307 302.592 82.9585 302.586L82.9544 303.086C82.2831 303.081 81.6113 303.077 80.9389 303.075L80.9403 302.575C80.6037 302.574 80.2669 302.574 79.9299 302.574H78.9329V303.074H76.939V302.574H74.9451V303.074H72.9511V302.574H70.9572V303.074H68.9633V302.574H66.9693V303.074H64.9754V302.574H62.9815V303.074H60.9875V302.574H58.9936V303.074H56.9996V302.574H55.0057V303.074H53.0118V302.574H51.0178V303.074H49.0239V302.574H47.03V303.074H45.036V302.574H43.0421V303.074H41.0482V302.574H39.0542V303.074H37.0603V302.574H35.0664V303.074H33.0724V302.574H31.0785V303.074H29.0845V302.574H27.0906V303.074H25.0967V302.574H23.1027V303.074H21.1088V302.574H19.1148V303.074H17.1209V302.574H15.127V303.074H13.133V302.574H11.1391V303.074H9.14515V302.574H7.15121V303.074H5.15727V302.574H3.16334V303.074H1.1694V302.574H-0.824541V303.074H-2.81848V302.574H-4.81242V303.074H-6.80636V302.574H-8.80029V303.074H-10.7942V302.574H-12.7882V303.074H-14.7821V302.574H-16.776V303.074H-18.77V302.574H-19.267V302.057H-19.767V300.024H-19.267V297.991H-19.767V295.958H-19.267V293.926H-19.767V291.893H-19.267V289.86H-19.767V287.827H-19.267V285.794H-19.767V283.761H-19.267V281.728H-19.767V279.695H-19.267V277.662H-19.767V275.629H-19.267V273.596H-19.767V271.563H-19.267V269.53H-19.767V267.497H-19.267V265.464H-19.767V263.432H-19.267V261.399H-19.767V259.366H-19.267V257.333H-19.767V255.3H-19.267V253.267H-19.767V251.234H-19.267V249.201H-19.767V247.168H-19.267V245.135H-19.767V243.102H-19.267V241.069H-19.767V239.036H-19.267V237.003H-19.767V234.97H-19.267V232.937H-19.767V230.905H-19.267V228.872H-19.767V226.839H-19.267V224.806H-19.767V222.773H-19.267V220.74H-19.767V218.707H-19.267V216.674H-19.767V214.641H-19.267V212.608H-19.767V210.575H-19.267V208.542H-19.767V206.509H-19.267V204.476H-19.767V202.443H-19.267V200.41H-19.767V198.378H-19.267V196.345H-19.767V194.312H-19.267V192.279H-19.767V190.246H-19.267V188.213H-19.767V186.18H-19.267V184.147H-19.767V182.114H-19.267V181.598H-19.0109V181.098H-17.0328V181.598H-15.0547V181.098H-13.0767V181.598H-11.0986V181.098H-9.12048V181.598H-7.14239V181.098H-5.16431V181.598H-3.18622V181.098H-1.20813V181.598H0.769957V181.098H2.74805V181.598H4.72614V181.098H6.70422V181.598H8.68231V181.098H10.6604V181.598H12.6385V181.098H14.6166V181.598H16.5947V181.098H18.5728V181.598H20.5509V181.098H22.5289V181.598H24.507V181.098H26.4851V181.598H28.4632V181.098H30.4413V181.598H32.4194V181.098H34.3975V181.598H36.3756V181.098H38.3537V181.598H40.3318V181.098H42.3099V181.598H44.288V181.098H46.266V181.598H48.2441V181.098H50.2222V181.598H52.2003V181.098H54.1784V181.598H56.1565V181.098H58.1346V181.598H60.1127V181.098H62.0908V181.598H64.0689V181.098H66.047V181.598H68.025V181.098H70.0031V181.598H71.9812V181.098H73.9593V181.598H75.9374V181.098H77.9155V181.598H78.9045C79.2402 181.598 79.5755 181.598 79.9107 181.599L79.9118 181.099C80.5828 181.1 81.253 181.103 81.9222 181.107L81.9191 181.607C82.5877 181.611 83.2555 181.617 83.9224 181.624L83.9276 181.124C84.5952 181.131 85.2619 181.139 85.9279 181.149L85.9207 181.649C86.586 181.658 87.2505 181.669 87.9141 181.681L87.9233 181.181C88.5936 181.193 89.2632 181.207 89.9319 181.222L89.9209 181.721C90.5903 181.736 91.2588 181.752 91.9266 181.769L91.9395 181.27C92.6079 181.287 93.2755 181.305 93.9424 181.325L93.9277 181.825C94.594 181.844 95.2595 181.865 95.9242 181.887L95.9407 181.387C96.6074 181.409 97.2733 181.432 97.9385 181.456L97.9203 181.956C98.5901 181.98 99.2591 182.006 99.9274 182.032L99.9472 181.532C100.616 181.559 101.284 181.586 101.952 181.615L101.93 182.115C102.597 182.143 103.263 182.173 103.929 182.203L103.952 181.704C104.618 181.734 105.283 181.766 105.948 181.799L105.923 182.298C106.591 182.331 107.258 182.364 107.924 182.399L107.95 181.899C108.619 181.934 109.288 181.97 109.955 182.006L109.928 182.505C110.595 182.542 111.262 182.579 111.928 182.617L111.956 182.118C112.623 182.156 113.288 182.195 113.954 182.235L113.924 182.734C114.589 182.774 115.254 182.814 115.918 182.856L115.949 182.356C116.618 182.398 117.286 182.44 117.954 182.484L117.921 182.982C118.589 183.026 119.256 183.069 119.922 183.114L119.955 182.615C120.622 182.659 121.288 182.704 121.953 182.75L121.919 183.249C122.584 183.295 123.249 183.341 123.913 183.388L123.948 182.889C124.615 182.936 125.281 182.984 125.947 183.032L125.911 183.531C126.579 183.579 127.245 183.628 127.912 183.678L127.949 183.179C128.615 183.228 129.282 183.278 129.947 183.329L129.91 183.827C130.575 183.878 131.24 183.928 131.905 183.98L131.943 183.481C132.608 183.532 133.273 183.584 133.937 183.636L133.898 184.135C134.566 184.187 135.232 184.24 135.899 184.293L135.938 183.794C136.605 183.847 137.271 183.9 137.937 183.954L137.897 184.452C138.563 184.506 139.228 184.56 139.893 184.614L139.933 184.116C140.599 184.17 141.263 184.224 141.928 184.279L141.887 184.777C142.553 184.832 143.219 184.887 143.884 184.942L143.925 184.443C144.592 184.499 145.258 184.554 145.924 184.609L145.883 185.108C146.549 185.163 147.214 185.218 147.879 185.274L147.921 184.776C148.586 184.831 149.251 184.887 149.916 184.943L149.875 185.441L151.87 185.608L151.911 185.11C152.578 185.165 153.244 185.221 153.91 185.277L153.868 185.775L155.866 185.942L155.907 185.444C156.573 185.499 157.238 185.554 157.904 185.61L157.862 186.108C158.528 186.163 159.193 186.218 159.858 186.273L159.899 185.774C160.565 185.829 161.231 185.884 161.897 185.938L161.856 186.437C162.522 186.491 163.188 186.545 163.854 186.599L163.895 186.101C164.56 186.155 165.226 186.208 165.892 186.262L165.852 186.76C166.518 186.813 167.183 186.866 167.849 186.918L167.888 186.42C168.554 186.472 169.22 186.525 169.885 186.576L169.847 187.075C170.513 187.126 171.18 187.178 171.846 187.228L171.884 186.73C172.55 186.78 173.216 186.831 173.882 186.88L173.845 187.379C174.511 187.429 175.177 187.478 175.844 187.526L175.88 187.028C176.546 187.076 177.212 187.124 177.878 187.171L177.843 187.67C178.509 187.717 179.176 187.764 179.843 187.81L179.877 187.311C180.543 187.357 181.21 187.403 181.876 187.447L181.843 187.946C182.509 187.991 183.176 188.035 183.843 188.078L183.875 187.579C184.542 187.622 185.209 187.664 185.875 187.706L185.844 188.205C186.511 188.246 187.178 188.287 187.845 188.327L187.875 187.828C188.541 187.867 189.208 187.906 189.875 187.944L189.846 188.443C190.513 188.481 191.181 188.518 191.848 188.555L191.875 188.055C192.542 188.091 193.209 188.127 193.877 188.161L193.851 188.66C194.519 188.694 195.187 188.727 195.855 188.759L195.879 188.26C196.545 188.292 197.212 188.323 197.879 188.353L197.856 188.852C198.524 188.882 199.191 188.911 199.859 188.939L199.88 188.439C200.547 188.467 201.215 188.493 201.883 188.519L201.864 189.018C202.532 189.044 203.201 189.068 203.87 189.091L203.887 188.591C204.554 188.614 205.221 188.635 205.888 188.656L205.873 189.155C206.54 189.176 207.208 189.195 207.876 189.213L207.889 188.713C208.556 188.731 209.224 188.747 209.892 188.762L209.881 189.262C210.55 189.277 211.219 189.291 211.888 189.303L211.898 188.803C212.565 188.815 213.233 188.826 213.902 188.836L213.895 189.336C214.562 189.345 215.229 189.353 215.897 189.359L215.902 188.859C216.569 188.866 217.237 188.871 217.905 188.874L217.902 189.374C218.571 189.378 219.24 189.38 219.91 189.38L219.91 188.88C220.579 188.881 221.248 188.879 221.918 188.877L221.92 189.377C222.587 189.374 223.254 189.369 223.922 189.363L223.917 188.863C224.584 188.857 225.251 188.85 225.918 188.84L225.925 189.34C226.594 189.331 227.262 189.32 227.932 189.307L227.922 188.807C228.591 188.794 229.26 188.78 229.929 188.763L229.941 189.263C230.61 189.247 231.278 189.229 231.948 189.209L231.933 188.709C232.598 188.69 233.264 188.668 233.93 188.645L233.948 189.145C234.615 189.121 235.283 189.096 235.951 189.069L235.931 188.569C236.599 188.542 237.267 188.514 237.936 188.483L237.959 188.982C238.628 188.951 239.299 188.919 239.97 188.884L239.944 188.385C240.608 188.35 241.273 188.314 241.938 188.276L241.967 188.775C242.632 188.737 243.299 188.696 243.965 188.654L243.934 188.155C244.6 188.113 245.266 188.069 245.934 188.023L245.968 188.521C246.637 188.475 247.305 188.427 247.975 188.376L247.938 187.878C248.604 187.828 249.271 187.775 249.938 187.721L249.979 188.219C250.642 188.165 251.306 188.109 251.97 188.051L251.926 187.553C252.59 187.495 253.254 187.435 253.919 187.372L253.966 187.87C254.632 187.808 255.299 187.743 255.966 187.676L255.917 187.179C256.583 187.112 257.25 187.043 257.918 186.972L257.971 187.469C258.634 187.398 259.297 187.326 259.961 187.251L259.905 186.754C260.565 186.679 261.226 186.602 261.888 186.523L261.948 187.02C262.61 186.941 263.274 186.859 263.939 186.775L263.876 186.279C264.539 186.196 265.204 186.11 265.869 186.022L265.935 186.517C266.6 186.429 267.267 186.338 267.935 186.245L267.866 185.75C268.522 185.659 269.179 185.565 269.836 185.469L269.909 185.964C270.567 185.867 271.227 185.769 271.888 185.668L271.812 185.174C272.471 185.073 273.132 184.97 273.793 184.864L273.871 185.358C274.534 185.252 275.197 185.144 275.861 185.034L275.779 184.54C276.438 184.43 277.099 184.318 277.76 184.203L277.846 184.696C278.499 184.583 279.154 184.467 279.809 184.349L279.72 183.857C280.375 183.739 281.03 183.618 281.686 183.496L281.778 183.987C282.435 183.864 283.093 183.738 283.752 183.61L283.657 183.12C284.315 182.992 284.973 182.861 285.633 182.729L285.732 183.219C286.387 183.087 287.043 182.952 287.7 182.815L287.598 182.326C288.246 182.191 288.895 182.053 289.545 181.913L289.651 182.402C290.302 182.262 290.954 182.119 291.606 181.974L291.498 181.486C292.15 181.341 292.802 181.193 293.456 181.043L293.568 181.53C294.223 181.38 294.878 181.227 295.535 181.072L295.42 180.585C296.068 180.431 296.718 180.275 297.369 180.116L297.487 180.602C298.131 180.445 298.776 180.286 299.421 180.123L299.3 179.639C299.944 179.477 300.59 179.312 301.236 179.145L301.361 179.63C302.009 179.462 302.657 179.293 303.307 179.12L303.178 178.637C303.827 178.465 304.476 178.29 305.127 178.113L305.258 178.595C305.903 178.419 306.549 178.241 307.196 178.06L307.062 177.578C307.698 177.4 308.335 177.22 308.973 177.037L309.111 177.517C309.75 177.334 310.39 177.148 311.031 176.959L310.89 176.48C311.531 176.291 312.172 176.101 312.814 175.907L312.958 176.386C313.601 176.192 314.245 175.996 314.89 175.797L314.743 175.319C315.384 175.121 316.025 174.921 316.668 174.718L316.818 175.195C317.448 174.996 318.079 174.795 318.711 174.591L318.557 174.115C319.188 173.911 319.82 173.705 320.452 173.497L320.609 173.971C321.243 173.762 321.877 173.551 322.513 173.336L322.353 172.863C322.988 172.649 323.624 172.432 324.26 172.213L324.423 172.686C325.061 172.466 325.7 172.244 326.339 172.019L326.174 171.548C326.797 171.329 327.42 171.108 328.045 170.884L328.214 171.354C328.837 171.131 329.462 170.905 330.087 170.677L329.915 170.207C330.539 169.979 331.165 169.748 331.791 169.515L331.966 169.983C332.593 169.75 333.221 169.514 333.85 169.275L333.673 168.807C334.301 168.569 334.931 168.328 335.561 168.084L335.741 168.551C336.365 168.309 336.991 168.066 337.617 167.819L337.434 167.354C338.047 167.113 338.66 166.869 339.275 166.623L339.461 167.087C340.077 166.84 340.694 166.591 341.312 166.339L341.123 165.876C341.74 165.625 342.358 165.371 342.977 165.115L343.168 165.577C343.788 165.32 344.409 165.061 345.031 164.799L344.837 164.338C345.458 164.076 346.08 163.812 346.703 163.546L346.9 164.005C347.509 163.744 348.12 163.481 348.731 163.215L348.532 162.756C349.137 162.493 349.742 162.228 350.349 161.96L350.551 162.417C351.159 162.149 351.767 161.878 352.377 161.605L352.172 161.149C352.781 160.876 353.39 160.6 354.001 160.322L354.208 160.778C354.82 160.499 355.432 160.218 356.046 159.935L355.836 159.481C356.449 159.198 357.062 158.913 357.677 158.625L357.889 159.077C358.487 158.797 359.085 158.515 359.685 158.23L359.471 157.778C360.066 157.495 360.663 157.21 361.26 156.922L361.477 157.372C362.076 157.084 362.675 156.793 363.275 156.5L363.056 156.051C363.656 155.758 364.256 155.463 364.858 155.165L365.079 155.613C365.682 155.315 366.285 155.015 366.889 154.712L366.665 154.265C367.268 153.962 367.873 153.657 368.478 153.35L368.705 153.796C369.294 153.496 369.884 153.195 370.475 152.891L370.247 152.446C370.833 152.145 371.419 151.841 372.007 151.535L372.238 151.978C372.827 151.672 373.416 151.363 374.006 151.052L373.773 150.61C374.363 150.299 374.953 149.986 375.545 149.67L375.78 150.112C376.373 149.796 376.966 149.477 377.56 149.157L377.322 148.717C377.916 148.397 378.51 148.074 379.106 147.749L379.345 148.188C379.397 148.16 379.448 148.132 379.499 148.103V148.276Z" stroke="#00A070" stroke-dasharray="2 2"/>
<path d="M379.499 -95.6295H379.999V-93.5965H379.499V-91.5636H379.999V-89.5307H379.499V-87.4977H379.999V-85.4648H379.499V-83.4319H379.999V-81.3989H379.499V-79.366H379.999V-77.3331H379.499V-75.3001H379.999V-73.2672H379.499V-71.2342H379.999V-69.2013H379.499V-67.1684H379.999V-65.1354H379.499V-63.1025H379.999V-61.0696H379.499V-59.0366H379.999V-57.0037H379.499V-54.9708H379.999V-52.9378H379.499V-50.9049H379.999V-48.872H379.499V-46.839H379.999V-44.8061H379.499V-42.7731H379.999V-40.7402H379.499V-38.7073H379.999V-36.6743H379.499V-34.6414H379.999V-32.6085H379.499V-30.5755H379.999V-28.5426H379.499V-26.5097H379.999V-24.4767H379.499V-22.4438H379.999V-20.4109H379.499V-18.3779H379.999V-16.345H379.499V-14.312H379.999V-12.2791H379.499V-10.2462H379.999V-8.21323H379.499V-6.18031H379.999V-4.14737H379.499V-2.11443H379.999V-0.0815048H379.499V1.95143H379.999V3.98437H379.499V6.0173H379.999V8.05023H379.499V10.0832H379.999V12.1161H379.499V14.149H379.999V16.182H379.499V18.2149H379.999V20.2478H379.499V22.2808H379.999V24.3137H379.499V25.0627C379.29 25.2024 379.08 25.3417 378.871 25.4806L379.147 25.8973C378.579 26.2739 378.012 26.6476 377.445 27.0183L377.171 26.5999C376.606 26.9701 376.04 27.3372 375.476 27.7015L375.747 28.1217C375.182 28.4865 374.617 28.8484 374.053 29.2075L373.784 28.7856C373.221 29.1441 372.658 29.4997 372.096 29.8523L372.362 30.2759C371.799 30.6291 371.237 30.9795 370.675 31.327L370.412 30.9017C369.844 31.2529 369.277 31.6012 368.711 31.9465L368.971 32.3734C368.389 32.7282 367.808 33.08 367.227 33.4287L366.97 33.0001C366.39 33.3483 365.811 33.6934 365.232 34.0355L365.487 34.4658C364.907 34.8085 364.329 35.1481 363.75 35.4848L363.499 35.0527C362.922 35.3888 362.345 35.7219 361.769 36.0521L362.018 36.4859C361.441 36.8165 360.865 37.1443 360.289 37.469L360.043 37.0336C359.461 37.3621 358.88 37.6876 358.299 38.01L358.541 38.4472C357.946 38.7776 357.351 39.1049 356.758 39.429L356.518 38.9901C355.925 39.3137 355.333 39.6341 354.741 39.9515L354.978 40.3921C354.385 40.71 353.793 41.0248 353.202 41.3366L352.969 40.8943C352.379 41.2055 351.789 41.5137 351.2 41.8188L351.43 42.2627C350.84 42.5684 350.251 42.871 349.662 43.1707L349.435 42.725C348.835 43.0304 348.236 43.3326 347.637 43.6317L347.86 44.079C347.253 44.3825 346.646 44.6828 346.04 44.9799L345.82 44.5309C345.215 44.8274 344.611 45.1208 344.007 45.4111L344.224 45.8617C343.619 46.1525 343.015 46.4401 342.411 46.7247L342.198 46.2724C341.596 46.5564 340.994 46.8373 340.393 47.1151L340.603 47.569C340 47.8479 339.397 48.1237 338.795 48.3964L338.589 47.941C337.97 48.2212 337.352 48.4982 336.735 48.772L336.937 49.229C336.319 49.5033 335.701 49.7744 335.084 50.0423L334.885 49.5836C334.269 49.851 333.654 50.1152 333.039 50.3762L333.234 50.8365C332.619 51.098 332.003 51.3564 331.389 51.6116L331.197 51.1499C330.584 51.4046 329.971 51.6563 329.359 51.9048L329.547 52.3681C328.922 52.622 328.297 52.8727 327.674 53.1202L327.489 52.6554C326.861 52.9047 326.233 53.1507 325.606 53.3935L325.787 53.8598C325.158 54.1031 324.531 54.3432 323.904 54.5801L323.727 54.1124C323.101 54.3488 322.476 54.5821 321.852 54.8122L322.025 55.2814C321.399 55.5119 320.774 55.7394 320.15 55.9637L319.981 55.4932C319.351 55.7197 318.721 55.943 318.092 56.1631L318.257 56.635C317.618 56.8588 316.979 57.0794 316.341 57.2967L316.18 56.8234C315.543 57.0403 314.907 57.254 314.271 57.4645L314.429 57.9391C313.792 58.1501 313.156 58.3579 312.52 58.5626L312.367 58.0867C311.733 58.2909 311.099 58.492 310.467 58.69L310.616 59.1672C309.977 59.3672 309.338 59.5641 308.7 59.7579L308.555 59.2795C307.908 59.4758 307.263 59.6689 306.618 59.8588L306.759 60.3385C306.112 60.5288 305.467 60.716 304.821 60.9001L304.684 60.4193C304.04 60.603 303.397 60.7835 302.755 60.961L302.888 61.4429C302.244 61.6208 301.601 61.7956 300.958 61.9673L300.829 61.4842C300.183 61.6568 299.538 61.8264 298.893 61.9928L299.018 62.477C298.363 62.646 297.709 62.8119 297.056 62.9747L296.935 62.4895C296.283 62.6519 295.632 62.8113 294.981 62.9676L295.098 63.4538C294.446 63.6105 293.794 63.764 293.143 63.9146L293.031 63.4275C292.381 63.5778 291.732 63.725 291.084 63.8693L291.192 64.3574C290.537 64.5032 289.883 64.646 289.229 64.7858L289.124 64.2969C288.465 64.4377 287.807 64.5755 287.15 64.7104L287.25 65.2002C286.591 65.3353 285.933 65.4674 285.275 65.5966L285.179 65.1059C284.522 65.2348 283.867 65.3608 283.211 65.4839L283.304 65.9753C282.647 66.0986 281.991 66.219 281.336 66.3366L281.247 65.8444C280.587 65.963 279.926 66.0786 279.267 66.1913L279.351 66.6842C278.687 66.7977 278.023 66.9083 277.36 67.0161L277.28 66.5226C276.618 66.6301 275.957 66.7348 275.296 66.8367L275.372 67.3309C274.71 67.433 274.049 67.5323 273.388 67.6288L273.316 67.134C272.656 67.2304 271.997 67.324 271.338 67.4148L271.407 67.9101C270.739 68.0023 270.071 68.0916 269.405 68.1783L269.34 67.6824C268.674 67.7689 268.009 67.8527 267.344 67.9338L267.405 68.4301C266.738 68.5113 266.073 68.5899 265.408 68.6658L265.351 68.169C264.687 68.2447 264.024 68.3179 263.361 68.3884L263.414 68.8856C262.748 68.9564 262.082 69.0247 261.417 69.0903L261.368 68.5927C260.699 68.6588 260.031 68.7222 259.363 68.7831L259.408 69.2811C258.739 69.3421 258.07 69.4005 257.402 69.4564L257.361 68.9582C256.694 69.014 256.027 69.0673 255.361 69.1182L255.399 69.6167C254.732 69.6677 254.065 69.7162 253.399 69.7623L253.364 69.2635C252.696 69.3098 252.027 69.3536 251.359 69.3951L251.39 69.8941C250.719 69.9357 250.049 69.975 249.378 70.0118L249.351 69.5126C248.682 69.5494 248.013 69.5839 247.345 69.6161L247.369 70.1155C246.7 70.1477 246.031 70.1776 245.363 70.2053L245.342 69.7057C244.674 69.7334 244.007 69.7588 243.34 69.782L243.357 70.2817C242.685 70.3051 242.014 70.3262 241.343 70.3452L241.328 69.8454C240.658 69.8643 239.988 69.881 239.319 69.8957L239.33 70.3955C238.66 70.4102 237.989 70.4227 237.32 70.4332L237.312 69.9332C236.643 69.9436 235.975 69.952 235.307 69.9583L235.312 70.4583C234.641 70.4647 233.97 70.469 233.3 70.4713L233.299 69.9713C232.628 69.9736 231.958 69.974 231.288 69.9724L231.287 70.4724C230.616 70.4708 229.945 70.4672 229.275 70.4618L229.279 69.9618C228.61 69.9564 227.94 69.9491 227.272 69.9399L227.265 70.4399C226.595 70.4307 225.926 70.4197 225.257 70.4069L225.266 69.907C224.596 69.8941 223.926 69.8795 223.256 69.8632L223.243 70.363C222.573 70.3466 221.902 70.3285 221.232 70.3086L221.247 69.8088C220.577 69.789 219.908 69.7675 219.239 69.7444L219.222 70.2441C218.552 70.2209 217.882 70.1961 217.213 70.1696L217.233 69.67C216.564 69.6436 215.895 69.6156 215.226 69.5861L215.204 70.0856C214.534 70.056 213.863 70.0248 213.193 69.9921L213.218 69.4927C212.549 69.4601 211.88 69.426 211.211 69.3904L211.184 69.8897C210.515 69.8541 209.846 69.8171 209.177 69.7786L209.205 69.2795C208.537 69.2411 207.869 69.2013 207.201 69.1602L207.17 69.6592C206.501 69.618 205.831 69.5755 205.162 69.5316L205.195 69.0327C204.526 68.9889 203.858 68.9438 203.189 68.8975L203.155 69.3963C202.486 69.35 201.817 69.3024 201.148 69.2536L201.185 68.7549C200.517 68.7062 199.849 68.6563 199.181 68.6052L199.143 69.1038C198.475 69.0527 197.806 69.0005 197.138 68.9472L197.178 68.4487C196.51 68.3955 195.842 68.3411 195.174 68.2857L195.133 68.784C194.465 68.7286 193.797 68.6722 193.129 68.6148L193.172 68.1166C192.504 68.0592 191.837 68.0009 191.169 67.9416L191.125 68.4397C190.457 68.3804 189.79 68.3202 189.122 68.2591L189.167 67.7612C188.951 67.7413 188.734 67.7214 188.517 67.7014C188.067 67.6598 187.616 67.6178 187.166 67.5755L187.119 68.0733C186.452 68.0105 185.784 67.947 185.117 67.8827L185.165 67.385C184.498 67.3207 183.831 67.2556 183.164 67.1899L183.115 67.6875C182.448 67.6217 181.78 67.5552 181.113 67.4881L181.163 66.9906C180.497 66.9235 179.83 66.8557 179.163 66.7874L179.112 67.2848C178.445 67.2164 177.779 67.1475 177.112 67.078L177.164 66.5807C176.497 66.5112 175.831 66.4412 175.164 66.3707L175.112 66.8679C174.445 66.7974 173.778 66.7264 173.111 66.6549L173.164 66.1578C172.498 66.0863 171.831 66.0144 171.165 65.9422L171.111 66.4393C170.444 66.3671 169.778 66.2944 169.112 66.2215L169.166 65.7245C168.776 65.6818 168.387 65.639 167.997 65.5961C167.72 65.5657 167.444 65.5353 167.168 65.5048L167.113 66.0018C166.447 65.9282 165.78 65.8544 165.114 65.7804L165.169 65.2834C164.502 65.2094 163.836 65.1351 163.169 65.0607L163.114 65.5576C162.448 65.4832 161.781 65.4086 161.115 65.334L161.171 64.8371L159.173 64.6129L159.117 65.1097C158.451 65.0349 157.785 64.96 157.118 64.8851L157.174 64.3882L155.175 64.1635L155.119 64.6604C154.452 64.5855 153.786 64.5107 153.119 64.4359L153.175 63.939C152.509 63.8644 151.843 63.7899 151.177 63.7155L151.121 64.2124C150.455 64.138 149.789 64.0637 149.123 63.9897L149.178 63.4927C148.512 63.4187 147.845 63.3448 147.178 63.2712L147.124 63.7681C146.457 63.6945 145.79 63.6212 145.123 63.5481L145.177 63.0511C144.511 62.9781 143.844 62.9054 143.178 62.833L143.124 63.3301C142.458 63.2578 141.791 63.1859 141.125 63.1144L141.178 62.6173C140.512 62.5457 139.845 62.4746 139.178 62.4039L139.125 62.9012C138.458 62.8305 137.791 62.7603 137.124 62.6906L137.176 62.1933C136.508 62.1236 135.841 62.0544 135.173 61.9857L135.121 62.4831C134.455 62.4147 133.789 62.3468 133.122 62.2795L133.173 61.782C132.506 61.7147 131.839 61.648 131.171 61.5819L131.122 62.0795C130.455 62.0135 129.788 61.9481 129.12 61.8835L129.168 61.3858C128.5 61.3211 127.832 61.2571 127.163 61.1939L127.116 61.6917C126.449 61.6286 125.781 61.5663 125.113 61.5048L125.159 61.0069C124.492 60.9454 123.824 60.8848 123.157 60.825L123.112 61.323C122.445 61.2633 121.777 61.2044 121.109 61.1464L121.152 60.6483C120.484 60.5903 119.815 60.5331 119.145 60.477L119.104 60.9753C118.435 60.9191 117.766 60.864 117.096 60.8099L117.137 60.3115C116.469 60.2575 115.801 60.2045 115.133 60.1526L115.094 60.6511C114.426 60.5992 113.758 60.5484 113.09 60.4987L113.127 60.0001C112.458 59.9503 111.789 59.9017 111.119 59.8542L111.083 60.353C110.414 60.3055 109.745 60.2592 109.075 60.2141L109.108 59.7153C108.439 59.6702 107.769 59.6264 107.098 59.5838L107.067 60.0828C106.399 60.0403 105.731 59.9991 105.062 59.9593L105.092 59.4601C104.423 59.4202 103.753 59.3816 103.083 59.3443L103.055 59.8435C102.386 59.8063 101.716 59.7704 101.045 59.7359L101.071 59.2366C100.4 59.202 99.7284 59.1689 99.0564 59.1372L99.0329 59.6366C98.3643 59.6051 97.6953 59.575 97.0259 59.5464L97.0472 59.0468C96.3779 59.0182 95.7081 58.9911 95.0378 58.9655L95.0187 59.4651C94.3492 59.4395 93.6792 59.4155 93.0088 59.3931L93.0255 58.8933C92.3542 58.8708 91.6825 58.8499 91.0102 58.8306L90.9959 59.3304C90.325 59.3112 89.6536 59.2936 88.9818 59.2776L88.9936 58.7778C88.3247 58.7619 87.6552 58.7477 86.9851 58.7351L86.9758 59.235C86.3066 59.2225 85.6369 59.2117 84.9667 59.2027L84.9734 58.7027C84.3023 58.6937 83.6307 58.6864 82.9585 58.6808L82.9544 59.1808C82.2831 59.1753 81.6113 59.1716 80.9389 59.1698L80.9403 58.6698C80.6037 58.6688 80.2669 58.6684 79.9299 58.6684H78.9329V59.1684H76.939V58.6684H74.9451V59.1684H72.9511V58.6684H70.9572V59.1684H68.9633V58.6684H66.9693V59.1684H64.9754V58.6684H62.9815V59.1684H60.9875V58.6684H58.9936V59.1684H56.9996V58.6684H55.0057V59.1684H53.0118V58.6684H51.0178V59.1684H49.0239V58.6684H47.03V59.1684H45.036V58.6684H43.0421V59.1684H41.0482V58.6684H39.0542V59.1684H37.0603V58.6684H35.0664V59.1684H33.0724V58.6684H31.0785V59.1684H29.0845V58.6684H27.0906V59.1684H25.0967V58.6684H23.1027V59.1684H21.1088V58.6684H19.1148V59.1684H17.1209V58.6684H15.127V59.1684H13.133V58.6684H11.1391V59.1684H9.14515V58.6684H7.15121V59.1684H5.15727V58.6684H3.16334V59.1684H1.1694V58.6684H-0.824541V59.1684H-2.81848V58.6684H-4.81242V59.1684H-6.80636V58.6684H-8.80029V59.1684H-10.7942V58.6684H-12.7882V59.1684H-14.7821V58.6684H-16.776V59.1684H-18.77V58.6684H-19.267V58.1519H-19.767V56.119H-19.267V54.0861H-19.767V52.0531H-19.267V50.0202H-19.767V47.9873H-19.267V45.9543H-19.767V43.9214H-19.267V41.8885H-19.767V39.8555H-19.267V37.8226H-19.767V35.7896H-19.267V33.7567H-19.767V31.7238H-19.267V29.6908H-19.767V27.6579H-19.267V25.625H-19.767V23.592H-19.267V21.5591H-19.767V19.5262H-19.267V17.4932H-19.767V15.4603H-19.267V13.4274H-19.767V11.3944H-19.267V9.36148H-19.767V7.32854H-19.267V5.2956H-19.767V3.26267H-19.267V1.22974H-19.767V-0.8032H-19.267V-2.83614H-19.767V-4.86906H-19.267V-6.902H-19.767V-8.93493H-19.267V-10.9679H-19.767V-13.0008H-19.267V-15.0337H-19.767V-17.0667H-19.267V-19.0996H-19.767V-21.1325H-19.267V-23.1655H-19.767V-25.1984H-19.267V-27.2313H-19.767V-29.2643H-19.267V-31.2972H-19.767V-33.3301H-19.267V-35.3631H-19.767V-37.396H-19.267V-39.4289H-19.767V-41.4619H-19.267V-43.4948H-19.767V-45.5277H-19.267V-47.5607H-19.767V-49.5936H-19.267V-51.6265H-19.767V-53.6595H-19.267V-55.6924H-19.767V-57.7253H-19.267V-59.7583H-19.767V-61.7912H-19.267V-62.3077H-19.0109V-62.8077H-17.0328V-62.3077H-15.0547V-62.8077H-13.0767V-62.3077H-11.0986V-62.8077H-9.12048V-62.3077H-7.14239V-62.8077H-5.16431V-62.3077H-3.18622V-62.8077H-1.20813V-62.3077H0.769957V-62.8077H2.74805V-62.3077H4.72614V-62.8077H6.70422V-62.3077H8.68231V-62.8077H10.6604V-62.3077H12.6385V-62.8077H14.6166V-62.3077H16.5947V-62.8077H18.5728V-62.3077H20.5509V-62.8077H22.5289V-62.3077H24.507V-62.8077H26.4851V-62.3077H28.4632V-62.8077H30.4413V-62.3077H32.4194V-62.8077H34.3975V-62.3077H36.3756V-62.8077H38.3537V-62.3077H40.3318V-62.8077H42.3099V-62.3077H44.288V-62.8077H46.266V-62.3077H48.2441V-62.8077H50.2222V-62.3077H52.2003V-62.8077H54.1784V-62.3077H56.1565V-62.8077H58.1346V-62.3077H60.1127V-62.8077H62.0908V-62.3077H64.0689V-62.8077H66.047V-62.3077H68.025V-62.8077H70.0031V-62.3077H71.9812V-62.8077H73.9593V-62.3077H75.9374V-62.8077H77.9155V-62.3077H78.9045C79.2402 -62.3077 79.5755 -62.3073 79.9107 -62.3066L79.9118 -62.8066C80.5828 -62.8052 81.253 -62.8023 81.9222 -62.7981L81.9191 -62.2981C82.5877 -62.2939 83.2555 -62.2883 83.9224 -62.2814L83.9276 -62.7814C84.5952 -62.7745 85.2619 -62.7662 85.9279 -62.7567L85.9207 -62.2567C86.586 -62.2472 87.2505 -62.2363 87.9141 -62.2242L87.9233 -62.7242C88.5936 -62.7119 89.2632 -62.6984 89.9319 -62.6837L89.9209 -62.1838C90.5903 -62.1691 91.2588 -62.1531 91.9266 -62.1359L91.9395 -62.6357C92.6079 -62.6185 93.2755 -62.6001 93.9424 -62.5805L93.9277 -62.0807C94.594 -62.0611 95.2595 -62.0404 95.9242 -62.0185L95.9407 -62.5182C96.6074 -62.4963 97.2733 -62.4733 97.9385 -62.4491L97.9203 -61.9495C98.5901 -61.9252 99.2591 -61.8997 99.9274 -61.8733L99.9472 -62.3729C100.616 -62.3464 101.284 -62.3188 101.952 -62.2902L101.93 -61.7907C102.597 -61.7621 103.263 -61.7325 103.929 -61.702L103.952 -62.2014C104.618 -62.1709 105.283 -62.1393 105.948 -62.1068L105.923 -61.6074C106.591 -61.5747 107.258 -61.5411 107.924 -61.5066L107.95 -62.0059C108.619 -61.9712 109.288 -61.9357 109.955 -61.8992L109.928 -61.4C110.595 -61.3636 111.262 -61.3263 111.928 -61.2882L111.956 -61.7873C112.623 -61.7492 113.288 -61.7102 113.954 -61.6705L113.924 -61.1714C114.589 -61.1316 115.254 -61.091 115.918 -61.0498L115.949 -61.5488C116.618 -61.5072 117.286 -61.4648 117.954 -61.4218L117.921 -60.9228C118.589 -60.8798 119.256 -60.836 119.922 -60.7916L119.955 -61.2905C120.622 -61.2461 121.288 -61.2009 121.953 -61.1552L121.919 -60.6564C122.584 -60.6107 123.249 -60.5643 123.913 -60.5174L123.948 -61.0162C124.615 -60.969 125.281 -60.9213 125.947 -60.8731L125.911 -60.3744C126.579 -60.326 127.245 -60.2771 127.912 -60.2277L127.949 -60.7264C128.615 -60.677 129.282 -60.627 129.947 -60.5767L129.91 -60.0781C130.575 -60.0277 131.24 -59.9769 131.905 -59.9257L131.943 -60.4242C132.608 -60.3729 133.273 -60.3212 133.937 -60.2692L133.898 -59.7707C134.566 -59.7184 135.232 -59.6658 135.899 -59.6128L135.938 -60.1112C136.605 -60.0582 137.271 -60.0049 137.937 -59.9512L137.897 -59.4529C138.563 -59.3993 139.228 -59.3454 139.893 -59.2912L139.934 -59.7896C140.599 -59.7355 141.263 -59.6811 141.928 -59.6265L141.887 -59.1282C142.553 -59.0735 143.219 -59.0186 143.884 -58.9635L143.925 -59.4618C144.592 -59.4067 145.258 -59.3514 145.924 -59.296L145.883 -58.7977C146.549 -58.7423 147.214 -58.6868 147.879 -58.6313L147.921 -59.1296C148.586 -59.074 149.251 -59.0184 149.916 -58.9628L149.875 -58.4645L151.87 -58.2975L151.911 -58.7958C152.578 -58.74 153.244 -58.6842 153.91 -58.6285L153.868 -58.1303L155.866 -57.9635L155.908 -58.4618C156.573 -58.4063 157.238 -58.3509 157.904 -58.2958L157.862 -57.7975C158.528 -57.7423 159.193 -57.6873 159.858 -57.6325L159.899 -58.1308C160.565 -58.0759 161.231 -58.0212 161.897 -57.9668L161.856 -57.4685C162.522 -57.414 163.188 -57.3598 163.854 -57.306L163.895 -57.8043C164.56 -57.7505 165.226 -57.6969 165.892 -57.6437L165.852 -57.1453C166.518 -57.0921 167.183 -57.0392 167.849 -56.9868L167.888 -57.4852C168.554 -57.4328 169.22 -57.3807 169.885 -57.3291L169.847 -56.8306C170.513 -56.7789 171.18 -56.7277 171.846 -56.677L171.884 -57.1756C172.55 -57.1248 173.216 -57.0746 173.882 -57.025L173.845 -56.5264C174.511 -56.4767 175.177 -56.4275 175.844 -56.379L175.88 -56.8777C176.546 -56.8291 177.212 -56.7812 177.878 -56.7339L177.843 -56.2351C178.509 -56.1878 179.176 -56.1411 179.843 -56.0951L179.877 -56.5939C180.543 -56.5479 181.21 -56.5026 181.876 -56.458L181.843 -55.9591C182.509 -55.9145 183.176 -55.8706 183.843 -55.8275L183.875 -56.3265C184.542 -56.2834 185.209 -56.2411 185.875 -56.1996L185.844 -55.7005C186.511 -55.6591 187.178 -55.6184 187.845 -55.5786L187.875 -56.0777C188.541 -56.0379 189.208 -55.9991 189.875 -55.9611L189.846 -55.4619C190.513 -55.4239 191.181 -55.3868 191.848 -55.3507L191.875 -55.8499C192.542 -55.8138 193.209 -55.7787 193.877 -55.7445L193.851 -55.2452C194.519 -55.211 195.187 -55.1779 195.855 -55.1458L195.879 -55.6452C196.545 -55.6132 197.212 -55.5823 197.879 -55.5524L197.856 -55.0529C198.524 -55.023 199.191 -54.9942 199.859 -54.9665L199.88 -55.4661C200.547 -55.4385 201.215 -55.412 201.883 -55.3867L201.864 -54.887C202.532 -54.8617 203.201 -54.8375 203.87 -54.8146L203.887 -55.3143C204.554 -55.2915 205.221 -55.2699 205.888 -55.2496L205.873 -54.7498C206.54 -54.7295 207.208 -54.7104 207.876 -54.6926L207.889 -55.1925C208.556 -55.1747 209.224 -55.1583 209.892 -55.1432L209.881 -54.6434C210.55 -54.6283 211.219 -54.6146 211.888 -54.6023L211.898 -55.1022C212.565 -55.0899 213.233 -55.079 213.902 -55.0696L213.895 -54.5697C214.562 -54.5603 215.229 -54.5523 215.897 -54.5458L215.902 -55.0458C216.569 -55.0393 217.237 -55.0343 217.905 -55.0309L217.902 -54.5309C218.571 -54.5274 219.24 -54.5255 219.91 -54.5251L219.91 -55.0251C220.579 -55.0247 221.248 -55.0259 221.918 -55.0287L221.92 -54.5288C222.587 -54.5316 223.254 -54.536 223.922 -54.542L223.917 -55.042C224.584 -55.048 225.251 -55.0557 225.918 -55.0651L225.925 -54.5651C226.594 -54.5745 227.262 -54.5856 227.932 -54.5984L227.922 -55.0983C228.591 -55.1111 229.26 -55.1256 229.929 -55.1418L229.941 -54.642C230.61 -54.6582 231.278 -54.6763 231.948 -54.6961L231.933 -55.1959C232.598 -55.2155 233.264 -55.237 233.93 -55.2603L233.948 -54.7606C234.615 -54.784 235.283 -54.8092 235.951 -54.8362L235.931 -55.3358C236.599 -55.3628 237.267 -55.3917 237.936 -55.4225L237.959 -54.923C238.628 -54.9539 239.299 -54.9866 239.97 -55.0213L239.944 -55.5207C240.608 -55.555 241.273 -55.5913 241.938 -55.6296L241.967 -55.1304C242.632 -55.1687 243.299 -55.2089 243.965 -55.2512L243.934 -55.7501C244.6 -55.7923 245.266 -55.8365 245.934 -55.8827L245.968 -55.3839C246.637 -55.4302 247.305 -55.4786 247.975 -55.529L247.938 -56.0276C248.604 -56.0777 249.271 -56.13 249.938 -56.1843L249.979 -55.686C250.642 -55.74 251.306 -55.796 251.97 -55.8542L251.926 -56.3523C252.59 -56.4104 253.254 -56.4706 253.919 -56.533L253.966 -56.0352C254.632 -56.0977 255.299 -56.1623 255.966 -56.2291L255.917 -56.7266C256.583 -56.7934 257.25 -56.8623 257.918 -56.9335L257.971 -56.4363C258.634 -56.5069 259.297 -56.5797 259.961 -56.6547L259.905 -57.1515C260.565 -57.2261 261.226 -57.3029 261.888 -57.382L261.948 -56.8855C262.61 -56.9647 263.274 -57.0461 263.939 -57.1298L263.876 -57.6259C264.54 -57.7095 265.204 -57.7954 265.869 -57.8836L265.935 -57.388C266.6 -57.4763 267.267 -57.567 267.935 -57.6601L267.866 -58.1553C268.522 -58.2467 269.179 -58.3404 269.836 -58.4365L269.909 -57.9417C270.567 -58.038 271.227 -58.1365 271.888 -58.2374L271.812 -58.7317C272.471 -58.8325 273.132 -58.9356 273.793 -59.0411L273.871 -58.5474C274.534 -58.6531 275.197 -58.7612 275.861 -58.8717L275.779 -59.3649C276.438 -59.4748 277.099 -59.5871 277.76 -59.7018L277.846 -59.2091C278.499 -59.3225 279.154 -59.4383 279.809 -59.5564L279.72 -60.0485C280.375 -60.1665 281.03 -60.2869 281.686 -60.4098L281.778 -59.9183C282.435 -60.0414 283.093 -60.1669 283.752 -60.2949L283.657 -60.7857C284.315 -60.9136 284.973 -61.0439 285.633 -61.1767L285.732 -60.6865C286.387 -60.8185 287.043 -60.9529 287.7 -61.0899L287.598 -61.5794C288.246 -61.7144 288.895 -61.852 289.545 -61.992L289.651 -61.5032C290.302 -61.6434 290.954 -61.7862 291.606 -61.9315L291.498 -62.4195C292.15 -62.5645 292.802 -62.7121 293.456 -62.8622L293.568 -62.3749C294.223 -62.5253 294.878 -62.6782 295.535 -62.8337L295.42 -63.3202C296.068 -63.4739 296.718 -63.6301 297.369 -63.7888L297.487 -63.3031C298.131 -63.4601 298.776 -63.6197 299.421 -63.7818L299.3 -64.2667C299.944 -64.4286 300.59 -64.5929 301.236 -64.7598L301.361 -64.2757C302.009 -64.4429 302.657 -64.6127 303.307 -64.7851L303.178 -65.2684C303.827 -65.4404 304.476 -65.6151 305.126 -65.7924L305.258 -65.3101C305.903 -65.4859 306.549 -65.6644 307.196 -65.8454L307.062 -66.327C307.698 -66.505 308.335 -66.6855 308.973 -66.8686L309.111 -66.388C309.75 -66.5715 310.39 -66.7574 311.031 -66.946L310.89 -67.4257C311.531 -67.6139 312.172 -67.8048 312.814 -67.9982L312.958 -67.5195C313.601 -67.7132 314.245 -67.9096 314.89 -68.1086L314.743 -68.5864C315.384 -68.784 316.025 -68.9843 316.668 -69.1871L316.818 -68.7103C317.448 -68.9092 318.079 -69.1105 318.711 -69.3144L318.557 -69.7903C319.188 -69.9939 319.82 -70.2 320.452 -70.4087L320.609 -69.9339C321.243 -70.1429 321.877 -70.3546 322.513 -70.5688L322.353 -71.0427C322.988 -71.2566 323.624 -71.4731 324.26 -71.6922L324.423 -71.2194C325.061 -71.4389 325.7 -71.6611 326.339 -71.8858L326.174 -72.3576C326.797 -72.5764 327.42 -72.7978 328.045 -73.0217L328.214 -72.551C328.837 -72.7744 329.462 -73.0003 330.087 -73.2288L329.915 -73.6984C330.539 -73.9265 331.165 -74.1572 331.791 -74.3904L331.966 -73.9219C332.593 -74.1555 333.221 -74.3917 333.85 -74.6305L333.673 -75.0979C334.301 -75.3364 334.931 -75.5774 335.561 -75.8211L335.741 -75.3547C336.365 -75.596 336.991 -75.8398 337.617 -76.0862L337.434 -76.5514C338.047 -76.7927 338.66 -77.0364 339.275 -77.2827L339.461 -76.8185C340.077 -77.0651 340.694 -77.3143 341.312 -77.5659L341.123 -78.029C341.74 -78.2803 342.358 -78.5341 342.977 -78.7905L343.168 -78.3286C343.788 -78.5854 344.409 -78.8447 345.031 -79.1066L344.837 -79.5674C345.458 -79.8289 346.08 -80.093 346.703 -80.3597L346.9 -79.9C347.509 -80.161 348.12 -80.4245 348.731 -80.6905L348.532 -81.149C349.137 -81.412 349.742 -81.6775 350.349 -81.9454L350.551 -81.488C351.159 -81.7563 351.767 -82.0271 352.377 -82.3004L352.172 -82.7566C352.781 -83.0295 353.39 -83.3049 354.001 -83.5828L354.208 -83.1277C354.82 -83.406 355.432 -83.6868 356.046 -83.9702L355.836 -84.4241C356.449 -84.707 357.062 -84.9925 357.677 -85.2805L357.889 -84.8278C358.487 -85.1079 359.085 -85.3905 359.685 -85.6754L359.471 -86.1271C360.066 -86.4101 360.663 -86.6956 361.26 -86.9835L361.477 -86.533C362.076 -86.8213 362.675 -87.112 363.275 -87.4051L363.056 -87.8544C363.656 -88.1472 364.256 -88.4423 364.858 -88.74L365.079 -88.2918C365.682 -88.5899 366.285 -88.8903 366.889 -89.1933L366.665 -89.6402C367.268 -89.9428 367.873 -90.2478 368.478 -90.5553L368.705 -90.1095C369.294 -90.4089 369.884 -90.7107 370.475 -91.0148L370.247 -91.4594C370.833 -91.7607 371.419 -92.0644 372.007 -92.3704L372.238 -91.927C372.827 -92.2334 373.416 -92.5421 374.006 -92.8532L373.773 -93.2956C374.363 -93.6063 374.953 -93.9194 375.545 -94.2349L375.78 -93.7937C376.373 -94.1096 376.966 -94.4278 377.56 -94.7485L377.322 -95.1885C377.916 -95.5087 378.51 -95.8314 379.106 -96.1565L379.345 -95.7176C379.397 -95.7457 379.448 -95.7737 379.499 -95.8018V-95.6295Z" stroke="#00A070" stroke-dasharray="2 2"/>
</g>
</svg>
