<svg width="178" height="32" viewBox="0 0 178 32" fill="none" xmlns="http://www.w3.org/2000/svg">
<path fill-rule="evenodd" clip-rule="evenodd" d="M30.9995 24.2039H27.167C23.2749 24.2039 20.1468 22.9631 15.4998 25.5151V20.7886C19.8578 17.879 23.255 19.4774 27.1273 19.4774H30.9904V24.2039H30.9995Z" fill="#00A070"/>
<path fill-rule="evenodd" clip-rule="evenodd" d="M0 26.8354H3.83249C7.72457 26.8354 10.8527 28.0762 15.4997 25.5242V30.2507C11.1417 33.1602 7.74444 31.5619 3.87222 31.5619H0.00903037V26.8354H0Z" fill="#DC3055"/>
<path fill-rule="evenodd" clip-rule="evenodd" d="M30.9796 14.751H27.167C23.2749 14.751 20.1468 13.5102 15.4998 16.0622V11.3357C19.8578 8.42611 23.255 10.0245 27.1273 10.0245H30.9796V14.751Z" fill="#00A070"/>
<path fill-rule="evenodd" clip-rule="evenodd" d="M0 17.3715H3.83249C7.72457 17.3715 10.8527 18.6123 15.4997 16.0603V20.7868C11.1417 23.6964 7.74444 22.098 3.87222 22.098H0.00903037V17.3715H0Z" fill="#DC3055"/>
<path fill-rule="evenodd" clip-rule="evenodd" d="M30.9995 5.28882H27.167C23.2749 5.28882 20.1468 4.04805 15.4998 6.60003V1.87354C19.8578 -1.03605 23.255 0.562329 27.1273 0.562329H30.9904V5.28882H30.9995Z" fill="#00A070"/>
<path fill-rule="evenodd" clip-rule="evenodd" d="M0 7.92034H3.83249C7.72457 7.92034 10.8527 9.16111 15.4997 6.60913V11.3356C11.1417 14.2452 7.74444 12.6468 3.87222 12.6468H0.00903037V7.92034H0Z" fill="#DC3055"/>
<path d="M119.937 23.2519V1.25659H128.615C130.283 1.25659 131.704 1.57521 132.878 2.21244C134.053 2.84252 134.948 3.71961 135.563 4.84372C136.186 5.96067 136.498 7.24946 136.498 8.71008C136.498 10.1707 136.183 11.4595 135.553 12.5764C134.923 13.6934 134.01 14.5633 132.814 15.1862C131.625 15.8092 130.186 16.1206 128.497 16.1206H122.966V12.3939H127.745C128.64 12.3939 129.377 12.2399 129.957 11.9321C130.544 11.617 130.981 11.1838 131.267 10.6325C131.561 10.074 131.708 9.43324 131.708 8.71008C131.708 7.97977 131.561 7.34254 131.267 6.79838C130.981 6.24707 130.544 5.82105 129.957 5.52033C129.37 5.21246 128.625 5.05852 127.723 5.05852H124.587V23.2519H119.937Z" fill="#DC3055"/>
<path d="M143.1 1.25659V23.2519H138.525V1.25659H143.1Z" fill="#DC3055"/>
<path d="M156.437 16.228V6.75542H161.012V23.2519H156.619V20.2555H156.448C156.075 21.2221 155.456 21.9989 154.59 22.586C153.73 23.1731 152.681 23.4667 151.443 23.4667C150.34 23.4667 149.37 23.2161 148.532 22.7149C147.695 22.2137 147.039 21.5013 146.567 20.5777C146.101 19.654 145.865 18.5478 145.858 17.259V6.75542H150.433V16.4428C150.44 17.4166 150.702 18.1863 151.217 18.7519C151.733 19.3175 152.424 19.6003 153.29 19.6003C153.841 19.6003 154.357 19.475 154.837 19.2244C155.316 18.9667 155.703 18.5872 155.997 18.086C156.297 17.5848 156.444 16.9655 156.437 16.228Z" fill="#DC3055"/>
<path d="M177.49 11.4595L173.301 11.7173C173.23 11.3593 173.076 11.0371 172.84 10.7507C172.603 10.4571 172.292 10.2244 171.905 10.0526C171.526 9.87357 171.071 9.78407 170.541 9.78407C169.832 9.78407 169.235 9.93443 168.748 10.2351C168.261 10.5287 168.017 10.9225 168.017 11.4165C168.017 11.8103 168.175 12.1433 168.49 12.4153C168.805 12.6874 169.346 12.9058 170.112 13.0705L173.097 13.6719C174.701 14.0013 175.897 14.5311 176.684 15.2614C177.472 15.9917 177.866 16.9512 177.866 18.1397C177.866 19.2209 177.547 20.1696 176.91 20.9858C176.28 21.802 175.414 22.4393 174.311 22.8975C173.215 23.3486 171.952 23.5741 170.52 23.5741C168.336 23.5741 166.596 23.1194 165.3 22.2101C164.011 21.2937 163.256 20.0478 163.034 18.4727L167.534 18.2364C167.67 18.9022 167.999 19.4106 168.522 19.7614C169.045 20.1051 169.714 20.277 170.531 20.277C171.332 20.277 171.977 20.123 172.464 19.8151C172.958 19.5001 173.208 19.0956 173.215 18.6015C173.208 18.1863 173.033 17.8462 172.689 17.5812C172.346 17.3092 171.816 17.1015 171.1 16.9583L168.243 16.3891C166.632 16.0669 165.433 15.5084 164.645 14.7137C163.865 13.9189 163.474 12.9058 163.474 11.6743C163.474 10.6146 163.761 9.70173 164.334 8.93562C164.914 8.16951 165.726 7.57881 166.772 7.16354C167.824 6.74826 169.056 6.54062 170.466 6.54062C172.55 6.54062 174.189 6.98096 175.385 7.86163C176.588 8.7423 177.289 9.94159 177.49 11.4595Z" fill="#DC3055"/>
<path d="M35.7133 23.2519V1.25657H50.5344V5.09071H40.3637V10.3318H49.7719V14.1659H40.3637V19.4177H50.5774V23.2519H35.7133Z" fill="#00A070"/>
<path d="M53.2384 29.4381V6.7554H57.7492V9.52629H57.9532C58.1537 9.08238 58.4437 8.6313 58.8231 8.17307C59.2098 7.70767 59.711 7.32103 60.3267 7.01316C60.9496 6.69812 61.7229 6.5406 62.6466 6.5406C63.8494 6.5406 64.9592 6.85564 65.9759 7.48571C66.9926 8.10863 67.8053 9.05016 68.4139 10.3103C69.0225 11.5633 69.3268 13.1349 69.3268 15.0251C69.3268 16.8652 69.0296 18.4189 68.4354 19.6862C67.8482 20.9464 67.0463 21.9022 66.0296 22.5538C65.0201 23.1982 63.8888 23.5204 62.6358 23.5204C61.748 23.5204 60.9926 23.3736 60.3697 23.08C59.7539 22.7865 59.2492 22.4178 58.8554 21.9738C58.4616 21.5228 58.1609 21.0681 57.9532 20.6099H57.8136V29.4381H53.2384ZM57.7169 15.0036C57.7169 15.9846 57.853 16.8402 58.1251 17.5705C58.3971 18.3008 58.7909 18.87 59.3064 19.2781C59.822 19.6791 60.4485 19.8796 61.1859 19.8796C61.9306 19.8796 62.5606 19.6755 63.0761 19.2674C63.5917 18.8521 63.9819 18.2793 64.2468 17.549C64.5189 16.8115 64.6549 15.9631 64.6549 15.0036C64.6549 14.0514 64.5225 13.2137 64.2575 12.4905C63.9926 11.7674 63.6024 11.2017 63.0869 10.7936C62.5714 10.3855 61.9377 10.1814 61.1859 10.1814C60.4413 10.1814 59.8112 10.3783 59.2957 10.7721C58.7873 11.1659 58.3971 11.7244 58.1251 12.4475C57.853 13.1707 57.7169 14.0227 57.7169 15.0036Z" fill="#00A070"/>
<path d="M78.9231 23.5741C77.2548 23.5741 75.8121 23.2197 74.5949 22.5108C73.3849 21.7948 72.4505 20.7996 71.7918 19.5251C71.1331 18.2435 70.8037 16.7578 70.8037 15.0681C70.8037 13.364 71.1331 11.8748 71.7918 10.6003C72.4505 9.31866 73.3849 8.32342 74.5949 7.61459C75.8121 6.8986 77.2548 6.5406 78.9231 6.5406C80.5913 6.5406 82.0305 6.8986 83.2405 7.61459C84.4577 8.32342 85.3957 9.31866 86.0544 10.6003C86.7131 11.8748 87.0424 13.364 87.0424 15.0681C87.0424 16.7578 86.7131 18.2435 86.0544 19.5251C85.3957 20.7996 84.4577 21.7948 83.2405 22.5108C82.0305 23.2197 80.5913 23.5741 78.9231 23.5741ZM78.9446 20.0299C79.7035 20.0299 80.3372 19.8151 80.8455 19.3855C81.3539 18.9488 81.7369 18.3545 81.9947 17.6027C82.2596 16.8509 82.3921 15.9953 82.3921 15.0359C82.3921 14.0764 82.2596 13.2208 81.9947 12.469C81.7369 11.7172 81.3539 11.123 80.8455 10.6862C80.3372 10.2494 79.7035 10.0311 78.9446 10.0311C78.1785 10.0311 77.5341 10.2494 77.0114 10.6862C76.4959 11.123 76.1057 11.7172 75.8407 12.469C75.583 13.2208 75.4541 14.0764 75.4541 15.0359C75.4541 15.9953 75.583 16.8509 75.8407 17.6027C76.1057 18.3545 76.4959 18.9488 77.0114 19.3855C77.5341 19.8151 78.1785 20.0299 78.9446 20.0299Z" fill="#00A070"/>
<path d="M93.6853 1.25657V23.2519H89.1101V1.25657H93.6853Z" fill="#00A070"/>
<path d="M96.443 23.2519V6.7554H101.018V23.2519H96.443ZM98.7413 4.6289C98.0611 4.6289 97.4776 4.40336 96.9907 3.95228C96.511 3.49405 96.2711 2.94631 96.2711 2.30908C96.2711 1.679 96.511 1.13843 96.9907 0.687355C97.4776 0.229118 98.0611 0 98.7413 0C99.4215 0 100.001 0.229118 100.481 0.687355C100.968 1.13843 101.211 1.679 101.211 2.30908C101.211 2.94631 100.968 3.49405 100.481 3.95228C100.001 4.40336 99.4215 4.6289 98.7413 4.6289Z" fill="#00A070"/>
<path d="M117.501 11.4595L113.313 11.7172C113.241 11.3592 113.087 11.037 112.851 10.7506C112.615 10.4571 112.303 10.2244 111.917 10.0525C111.537 9.87355 111.083 9.78405 110.553 9.78405C109.844 9.78405 109.246 9.93441 108.759 10.2351C108.272 10.5287 108.029 10.9225 108.029 11.4165C108.029 11.8103 108.186 12.1432 108.501 12.4153C108.816 12.6874 109.357 12.9058 110.123 13.0705L113.109 13.6719C114.713 14.0013 115.908 14.5311 116.696 15.2614C117.484 15.9917 117.877 16.9511 117.877 18.1397C117.877 19.2208 117.559 20.1695 116.922 20.9858C116.291 21.802 115.425 22.4392 114.322 22.8975C113.227 23.3485 111.963 23.5741 110.531 23.5741C108.347 23.5741 106.608 23.1194 105.312 22.2101C104.023 21.2936 103.268 20.0478 103.046 18.4726L107.546 18.2364C107.682 18.9022 108.011 19.4106 108.534 19.7614C109.056 20.1051 109.726 20.2769 110.542 20.2769C111.344 20.2769 111.988 20.123 112.475 19.8151C112.969 19.5001 113.22 19.0955 113.227 18.6015C113.22 18.1862 113.044 17.8461 112.701 17.5812C112.357 17.3091 111.827 17.1015 111.111 16.9583L108.254 16.3891C106.643 16.0669 105.444 15.5084 104.657 14.7137C103.876 13.9189 103.486 12.9058 103.486 11.6743C103.486 10.6146 103.772 9.70171 104.345 8.9356C104.925 8.16949 105.738 7.57879 106.783 7.16351C107.836 6.74824 109.067 6.5406 110.478 6.5406C112.561 6.5406 114.201 6.98094 115.396 7.86161C116.599 8.74228 117.301 9.94157 117.501 11.4595Z" fill="#00A070"/>
</svg>
