<svg width="36" height="36" viewBox="0 0 36 36" fill="none" xmlns="http://www.w3.org/2000/svg">
<path d="M30 13.5V24C30 24.5967 29.7629 25.169 29.341 25.591C28.919 26.0129 28.3467 26.25 27.75 26.25C27.1533 26.25 26.581 26.0129 26.159 25.591C25.7371 25.169 25.5 24.5967 25.5 24V19.5C25.5 18.7044 25.1839 17.9413 24.6213 17.3787C24.0587 16.8161 23.2956 16.5 22.5 16.5H6M30 13.5L25.5 9M30 13.5H28.5C28.1022 13.5 27.7206 13.342 27.4393 13.0607C27.158 12.7794 27 12.3978 27 12V10.5M6 30V9C6 8.20435 6.31607 7.44129 6.87868 6.87868C7.44129 6.31607 8.20435 6 9 6H18C18.7956 6 19.5587 6.31607 20.1213 6.87868C20.6839 7.44129 21 8.20435 21 9V30M4.5 30H22.5" stroke="#DC3055" stroke-width="2.2" stroke-linecap="round" stroke-linejoin="round"/>
</svg>
