<svg width="24" height="24" viewBox="0 0 24 24" fill="none" xmlns="http://www.w3.org/2000/svg">
<path fill-rule="evenodd" clip-rule="evenodd" d="M23.6701 18.1301H20.7845C17.8541 18.1301 15.4988 17.1959 12 19.1173V15.5586C15.2813 13.3679 17.8391 14.5714 20.7546 14.5714H23.6633V18.1301H23.6701Z" fill="#DDDDDD"/>
<path fill-rule="evenodd" clip-rule="evenodd" d="M0.329834 20.1115H3.21541C6.14586 20.1115 8.5011 21.0457 12 19.1243V22.683C8.71868 24.8737 6.16082 23.6702 3.24533 23.6702H0.336633V20.1115H0.329834Z" fill="#DDDDDD"/>
<path fill-rule="evenodd" clip-rule="evenodd" d="M23.6552 11.0128H20.7845C17.8541 11.0128 15.4988 10.0786 12 12V8.44134C15.2813 6.25064 17.8391 7.45409 20.7546 7.45409H23.6552V11.0128Z" fill="#DDDDDD"/>
<path fill-rule="evenodd" clip-rule="evenodd" d="M0.329834 12.986H3.21541C6.14586 12.986 8.5011 13.9202 12 11.9987V15.5574C8.71868 17.7481 6.16082 16.5447 3.24533 16.5447H0.336633V12.986H0.329834Z" fill="#DDDDDD"/>
<path fill-rule="evenodd" clip-rule="evenodd" d="M23.6701 3.88852H20.7845C17.8541 3.88852 15.4988 2.95432 12 4.87577V1.31707C15.2813 -0.87363 17.8391 0.329827 20.7546 0.329827H23.6633V3.88852H23.6701Z" fill="#DDDDDD"/>
<path fill-rule="evenodd" clip-rule="evenodd" d="M0.329834 5.86984H3.21541C6.14586 5.86984 8.5011 6.80405 12 4.8826V8.4413C8.71868 10.632 6.16082 9.42854 3.24533 9.42854H0.336633V5.86984H0.329834Z" fill="#DDDDDD"/>
</svg>
