<svg width="24" height="24" viewBox="0 0 24 24" fill="none" xmlns="http://www.w3.org/2000/svg">
<path fill-rule="evenodd" clip-rule="evenodd" d="M23.2496 18.1529H20.3752C17.4562 18.1529 15.1101 17.2223 11.6248 19.1363V15.5915C14.8934 13.4093 17.4413 14.6081 20.3454 14.6081H23.2428V18.1529H23.2496Z" fill="#00A070"/>
<path fill-rule="evenodd" clip-rule="evenodd" d="M0 20.1266H2.87437C5.79343 20.1266 8.13952 21.0571 11.6248 19.1432V22.688C8.35625 24.8702 5.80833 23.6714 2.90417 23.6714H0.00677277V20.1266H0Z" fill="#DC3055"/>
<path fill-rule="evenodd" clip-rule="evenodd" d="M23.2347 11.0632H20.3752C17.4562 11.0632 15.1101 10.1326 11.6248 12.0466V8.50174C14.8934 6.31955 17.4413 7.51833 20.3454 7.51833H23.2347V11.0632Z" fill="#00A070"/>
<path fill-rule="evenodd" clip-rule="evenodd" d="M0 13.0287H2.87437C5.79343 13.0287 8.13952 13.9592 11.6248 12.0453V15.5901C8.35625 17.7723 5.80833 16.5735 2.90417 16.5735H0.00677277V13.0287H0Z" fill="#DC3055"/>
<path fill-rule="evenodd" clip-rule="evenodd" d="M23.2496 3.96665H20.3752C17.4562 3.96665 15.1101 3.03607 11.6248 4.95005V1.40518C14.8934 -0.777004 17.4413 0.421777 20.3454 0.421777H23.2428V3.96665H23.2496Z" fill="#00A070"/>
<path fill-rule="evenodd" clip-rule="evenodd" d="M0 5.94029H2.87437C5.79343 5.94029 8.13952 6.87086 11.6248 4.95688V8.50175C8.35625 10.6839 5.80833 9.48516 2.90417 9.48516H0.00677277V5.94029H0Z" fill="#DC3055"/>
</svg>
