<svg width="36" height="36" viewBox="0 0 36 36" fill="none" xmlns="http://www.w3.org/2000/svg">
<path d="M20.25 9.74997L26.25 15.75M6 30H12L27.75 14.25C28.144 13.856 28.4565 13.3883 28.6697 12.8736C28.8829 12.3588 28.9926 11.8071 28.9926 11.25C28.9926 10.6928 28.8829 10.1411 28.6697 9.62638C28.4565 9.11164 28.144 8.64393 27.75 8.24997C27.356 7.856 26.8883 7.54349 26.3736 7.33028C25.8588 7.11706 25.3072 7.00732 24.75 7.00732C24.1928 7.00732 23.6412 7.11706 23.1264 7.33028C22.6117 7.54349 22.144 7.856 21.75 8.24997L6 24V30Z" stroke="#DC3055" stroke-width="2.2" stroke-linecap="round" stroke-linejoin="round"/>
</svg>
