<svg width="112" height="112" viewBox="0 0 112 112" fill="none" xmlns="http://www.w3.org/2000/svg">
<path d="M19.9337 92.0663C17.9832 94.0168 14.8013 94.03 13.0323 91.9135C7.03412 84.7373 2.91101 76.1502 1.07602 66.9251C-1.08475 56.0621 0.0242388 44.8024 4.26275 34.5697C8.50125 24.3371 15.6789 15.5911 24.8881 9.4377C34.0972 3.28434 44.9242 -1.32077e-07 56 0C67.0758 1.32077e-07 77.9028 3.28434 87.1119 9.4377C96.3211 15.5911 103.499 24.3371 107.737 34.5697C111.976 44.8024 113.085 56.0621 110.924 66.9251C109.089 76.1502 104.966 84.7373 98.9677 91.9135C97.1987 94.03 94.0168 94.0168 92.0663 92.0663C90.1158 90.1158 90.1403 86.9686 91.868 84.8183C96.4906 79.0648 99.6774 72.2628 101.127 64.9763C102.902 56.051 101.991 46.7998 98.5085 38.3924C95.0261 29.985 89.1287 22.7991 81.5623 17.7433C73.9958 12.6876 65.1001 9.98911 56 9.98911C46.8999 9.98911 38.0042 12.6876 30.4377 17.7433C22.8713 22.7991 16.9739 29.985 13.4915 38.3924C10.009 46.7998 9.09785 56.051 10.8732 64.9763C12.3226 72.2628 15.5094 79.0648 20.132 84.8183C21.8597 86.9686 21.8842 90.1158 19.9337 92.0663Z" fill="#00A070" fill-opacity="0.1"/>
<path d="M19.9337 92.0663C17.9832 94.0168 14.8013 94.03 13.0323 91.9135C7.48937 85.2819 3.54152 77.4381 1.52667 68.9868C-0.875363 58.9114 -0.436015 48.3672 2.79586 38.5266C6.02774 28.686 11.9255 19.9345 19.8334 13.2451C27.7414 6.55575 37.3496 2.19065 47.5899 0.635117C57.8302 -0.920413 68.3012 0.394583 77.8389 4.4339C87.3766 8.47322 95.6071 15.0786 101.615 23.5156C107.624 31.9526 111.174 41.8907 111.873 52.2249C112.458 60.8933 111.018 69.5556 107.694 77.5341C106.633 80.0804 103.591 81.0127 101.149 79.7294C98.7077 78.4461 97.7965 75.4336 98.8077 72.8672C101.3 66.542 102.367 59.7225 101.906 52.8983C101.333 44.4075 98.4152 36.2421 93.4787 29.3101C88.5421 22.378 81.7797 16.9509 73.9434 13.6321C66.107 10.3133 57.5037 9.23287 49.0901 10.5109C40.6764 11.789 32.7821 15.3755 26.2847 20.8716C19.7874 26.3677 14.9416 33.5582 12.2863 41.6434C9.63087 49.7287 9.26989 58.3921 11.2435 66.6702C12.8296 73.3235 15.8739 79.5185 20.132 84.8183C21.8597 86.9686 21.8842 90.1158 19.9337 92.0663Z" fill="#00A070"/>
<path d="M31.9526 38.192C29.5286 38.192 28.0646 36.5 28.0646 33.752C28.0646 30.98 29.5286 29.288 31.9526 29.288C34.3886 29.288 35.8526 30.98 35.8526 33.752C35.8526 36.5 34.3886 38.192 31.9526 38.192ZM29.1446 33.752C29.1446 35.876 30.2006 37.184 31.9526 37.184C33.7166 37.184 34.7726 35.876 34.7726 33.752C34.7726 31.604 33.7166 30.296 31.9526 30.296C30.2006 30.296 29.1446 31.604 29.1446 33.752ZM41.5054 33.776C41.3734 32.948 40.6774 32.456 39.9214 32.456C38.7454 32.456 38.0614 33.344 38.0614 34.82C38.0614 36.296 38.7454 37.184 39.9214 37.184C40.7134 37.184 41.4094 36.656 41.5534 35.744L42.6214 35.816C42.4174 37.256 41.2654 38.144 39.9214 38.144C38.1454 38.144 37.0054 36.836 37.0054 34.82C37.0054 32.804 38.1454 31.496 39.9214 31.496C41.2174 31.496 42.3934 32.336 42.5614 33.704L41.5054 33.776ZM48.8672 31.64V32.528H46.5752V38H45.5552V32.528H43.2632V31.64H48.8672ZM49.8634 33.512C50.1154 32.276 51.1114 31.496 52.4674 31.496C54.0994 31.496 55.0234 32.456 55.0234 34.16V36.716C55.0234 36.98 55.1434 37.112 55.4074 37.112H55.6714V38H55.2394C54.5914 38 54.0274 37.796 54.0274 37.016C53.7514 37.604 53.0554 38.144 52.0474 38.144C50.7754 38.144 49.7554 37.472 49.7554 36.332C49.7554 35.024 50.7394 34.688 52.1554 34.424L54.0154 34.052C54.0034 32.984 53.4874 32.456 52.4674 32.456C51.6634 32.456 51.1234 32.864 50.9314 33.596L49.8634 33.512ZM50.8114 36.332C50.8114 36.836 51.2434 37.256 52.1794 37.256C53.2114 37.244 54.0394 36.524 54.0394 35.036V34.952L52.5394 35.216C51.5914 35.384 50.8114 35.444 50.8114 36.332ZM63.2338 31.64V38H62.2258V32.528H59.5018L59.1058 36.236C58.9858 37.412 58.4818 38 57.5458 38H56.8138V36.992H57.4018C57.7978 36.992 58.0378 36.692 58.0978 36.128L58.5778 31.64H63.2338ZM67.4956 38.144C65.7316 38.144 64.5796 36.848 64.5796 34.82C64.5796 32.792 65.7316 31.496 67.4956 31.496C69.2476 31.496 70.3996 32.792 70.3996 34.82C70.3996 36.848 69.2476 38.144 67.4956 38.144ZM65.6356 34.82C65.6356 36.296 66.3196 37.184 67.4956 37.184C68.6596 37.184 69.3436 36.296 69.3436 34.82C69.3436 33.344 68.6596 32.456 67.4956 32.456C66.3196 32.456 65.6356 33.344 65.6356 34.82ZM76.0288 33.776C75.8968 32.948 75.2008 32.456 74.4448 32.456C73.2688 32.456 72.5848 33.344 72.5848 34.82C72.5848 36.296 73.2688 37.184 74.4448 37.184C75.2368 37.184 75.9328 36.656 76.0768 35.744L77.1448 35.816C76.9408 37.256 75.7888 38.144 74.4448 38.144C72.6688 38.144 71.5288 36.836 71.5288 34.82C71.5288 32.804 72.6688 31.496 74.4448 31.496C75.7408 31.496 76.9168 32.336 77.0848 33.704L76.0288 33.776ZM78.4873 38V31.64H79.4953V33.98H81.1753C82.9633 33.98 83.9593 34.7 83.9593 35.996C83.9593 37.28 82.9633 38 81.1753 38H78.4873ZM79.4953 37.1H81.1753C82.3273 37.1 82.9033 36.74 82.9033 35.996C82.9033 35.24 82.3273 34.868 81.1753 34.868H79.4953V37.1Z" fill="#737373"/>
<path d="M36.7447 58.25C38.4847 58.28 40.3747 57.44 40.3747 55.19C40.3747 53.63 38.9947 52.61 36.7447 52.61C34.8247 52.61 33.5347 53.54 33.3247 55.01L29.3647 54.77C29.7547 51.47 32.7547 49.22 36.8047 49.22C41.4247 49.22 44.4247 51.41 44.4247 54.77C44.4247 57.17 42.9247 58.79 40.1347 59.48C43.3447 60.26 45.1447 62.3 45.1447 65.15C45.1447 68.96 41.8447 71.48 36.8047 71.48C32.1847 71.48 28.9747 68.87 28.7647 65L32.7547 64.82C32.9647 67.07 35.0047 68.09 36.8347 68.09C38.9647 68.09 41.0947 67.01 41.0947 64.61C41.0947 62.21 38.9347 61.13 36.7447 61.16L34.9747 61.19V58.22L36.7447 58.25ZM60.1641 54.86C59.5941 53.39 58.3341 52.58 56.5941 52.58C53.5941 52.58 51.8541 55.31 51.6141 59.78C52.7841 57.83 54.6141 56.81 56.8941 56.81C61.0941 56.81 63.9741 59.72 63.9741 63.98C63.9741 68.72 60.5841 71.48 55.9641 71.48C53.7741 71.48 51.7341 70.64 50.1741 68.87C48.7041 67.25 47.9541 64.67 47.9541 61.52C47.9541 55.01 50.3841 49.22 56.6541 49.22C60.1041 49.22 62.9841 51.17 63.8541 54.62L60.1641 54.86ZM51.9441 63.98C51.9141 66.47 53.5941 68.3 56.0241 68.3C58.3941 68.3 60.0441 66.47 60.0441 63.98C60.0441 61.55 58.4541 59.81 56.1741 59.81C53.7141 59.81 51.9741 61.55 51.9441 63.98ZM67.3773 56.36C67.7973 52.22 70.8873 49.22 75.4473 49.22C79.7073 49.22 82.7973 51.89 82.7973 55.55C82.7973 58.79 80.2473 60.74 77.2473 62.54C75.8973 63.26 72.0573 65.72 71.9073 67.61H82.9173V71H67.1673C67.1673 64.7 71.0073 62.03 75.1173 59.63C77.3373 58.28 78.7773 56.99 78.7773 55.52C78.7773 53.84 77.3973 52.61 75.4473 52.61C73.2873 52.61 71.8473 54.02 71.3973 56.6L67.3773 56.36Z" fill="#0A0A0A"/>
<path d="M51.6466 83.64V89.112H52.6786V91.8H51.6706V90H46.3786V91.8H45.3706V89.112H45.9346C46.4386 89.112 46.7146 88.752 46.8226 87.96L47.3986 83.64H51.6466ZM47.4226 89.112H50.6386V84.528H48.3106L47.8066 88.056C47.7466 88.5 47.6146 88.848 47.4226 89.112ZM54.0655 83.64H55.0735V86.388H58.0735V83.64H59.0815V90H58.0735V87.276H55.0735V90H54.0655V83.64ZM66.151 83.64V90H65.143V87.54H63.631L62.179 90H61.003L62.551 87.36C61.615 87.024 61.099 86.376 61.099 85.56C61.099 84.324 62.011 83.64 63.643 83.64H66.151ZM62.179 85.584C62.179 86.268 62.707 86.652 63.643 86.652H65.143V84.516H63.643C62.707 84.516 62.179 84.9 62.179 85.584Z" fill="#737373"/>
</svg>
