<svg width="112" height="112" viewBox="0 0 112 112" fill="none" xmlns="http://www.w3.org/2000/svg">
<path d="M19.9337 92.0663C17.9832 94.0168 14.8013 94.03 13.0323 91.9135C7.03412 84.7373 2.91101 76.1502 1.07602 66.9251C-1.08475 56.0621 0.0242388 44.8024 4.26275 34.5697C8.50125 24.3371 15.6789 15.5911 24.8881 9.4377C34.0972 3.28434 44.9242 -1.32077e-07 56 0C67.0758 1.32077e-07 77.9028 3.28434 87.1119 9.4377C96.3211 15.5911 103.499 24.3371 107.737 34.5697C111.976 44.8024 113.085 56.0621 110.924 66.9251C109.089 76.1502 104.966 84.7373 98.9677 91.9135C97.1987 94.03 94.0168 94.0168 92.0663 92.0663C90.1158 90.1158 90.1403 86.9686 91.868 84.8183C96.4906 79.0648 99.6774 72.2628 101.127 64.9763C102.902 56.051 101.991 46.7998 98.5085 38.3924C95.0261 29.985 89.1287 22.7991 81.5623 17.7433C73.9958 12.6876 65.1001 9.98911 56 9.98911C46.8999 9.98911 38.0042 12.6876 30.4377 17.7433C22.8713 22.7991 16.9739 29.985 13.4915 38.3924C10.009 46.7998 9.09785 56.051 10.8732 64.9763C12.3226 72.2628 15.5094 79.0648 20.132 84.8183C21.8597 86.9686 21.8842 90.1158 19.9337 92.0663Z" fill="#EFEFEF"/>
<path d="M31.9526 38.192C29.5286 38.192 28.0646 36.5 28.0646 33.752C28.0646 30.98 29.5286 29.288 31.9526 29.288C34.3886 29.288 35.8526 30.98 35.8526 33.752C35.8526 36.5 34.3886 38.192 31.9526 38.192ZM29.1446 33.752C29.1446 35.876 30.2006 37.184 31.9526 37.184C33.7166 37.184 34.7726 35.876 34.7726 33.752C34.7726 31.604 33.7166 30.296 31.9526 30.296C30.2006 30.296 29.1446 31.604 29.1446 33.752ZM41.5054 33.776C41.3734 32.948 40.6774 32.456 39.9214 32.456C38.7454 32.456 38.0614 33.344 38.0614 34.82C38.0614 36.296 38.7454 37.184 39.9214 37.184C40.7134 37.184 41.4094 36.656 41.5534 35.744L42.6214 35.816C42.4174 37.256 41.2654 38.144 39.9214 38.144C38.1454 38.144 37.0054 36.836 37.0054 34.82C37.0054 32.804 38.1454 31.496 39.9214 31.496C41.2174 31.496 42.3934 32.336 42.5614 33.704L41.5054 33.776ZM48.8672 31.64V32.528H46.5752V38H45.5552V32.528H43.2632V31.64H48.8672ZM49.8634 33.512C50.1154 32.276 51.1114 31.496 52.4674 31.496C54.0994 31.496 55.0234 32.456 55.0234 34.16V36.716C55.0234 36.98 55.1434 37.112 55.4074 37.112H55.6714V38H55.2394C54.5914 38 54.0274 37.796 54.0274 37.016C53.7514 37.604 53.0554 38.144 52.0474 38.144C50.7754 38.144 49.7554 37.472 49.7554 36.332C49.7554 35.024 50.7394 34.688 52.1554 34.424L54.0154 34.052C54.0034 32.984 53.4874 32.456 52.4674 32.456C51.6634 32.456 51.1234 32.864 50.9314 33.596L49.8634 33.512ZM50.8114 36.332C50.8114 36.836 51.2434 37.256 52.1794 37.256C53.2114 37.244 54.0394 36.524 54.0394 35.036V34.952L52.5394 35.216C51.5914 35.384 50.8114 35.444 50.8114 36.332ZM63.2338 31.64V38H62.2258V32.528H59.5018L59.1058 36.236C58.9858 37.412 58.4818 38 57.5458 38H56.8138V36.992H57.4018C57.7978 36.992 58.0378 36.692 58.0978 36.128L58.5778 31.64H63.2338ZM67.4956 38.144C65.7316 38.144 64.5796 36.848 64.5796 34.82C64.5796 32.792 65.7316 31.496 67.4956 31.496C69.2476 31.496 70.3996 32.792 70.3996 34.82C70.3996 36.848 69.2476 38.144 67.4956 38.144ZM65.6356 34.82C65.6356 36.296 66.3196 37.184 67.4956 37.184C68.6596 37.184 69.3436 36.296 69.3436 34.82C69.3436 33.344 68.6596 32.456 67.4956 32.456C66.3196 32.456 65.6356 33.344 65.6356 34.82ZM76.0288 33.776C75.8968 32.948 75.2008 32.456 74.4448 32.456C73.2688 32.456 72.5848 33.344 72.5848 34.82C72.5848 36.296 73.2688 37.184 74.4448 37.184C75.2368 37.184 75.9328 36.656 76.0768 35.744L77.1448 35.816C76.9408 37.256 75.7888 38.144 74.4448 38.144C72.6688 38.144 71.5288 36.836 71.5288 34.82C71.5288 32.804 72.6688 31.496 74.4448 31.496C75.7408 31.496 76.9168 32.336 77.0848 33.704L76.0288 33.776ZM78.4873 38V31.64H79.4953V33.98H81.1753C82.9633 33.98 83.9593 34.7 83.9593 35.996C83.9593 37.28 82.9633 38 81.1753 38H78.4873ZM79.4953 37.1H81.1753C82.3273 37.1 82.9033 36.74 82.9033 35.996C82.9033 35.24 82.3273 34.868 81.1753 34.868H79.4953V37.1Z" fill="#A3A3A3"/>
<path d="M55.9929 71.48C50.4429 71.48 47.1129 67.1 47.1129 60.38C47.1129 53.63 50.4429 49.22 55.9929 49.22C61.5429 49.22 64.8429 53.63 64.8429 60.38C64.8429 67.1 61.5429 71.48 55.9929 71.48ZM51.1629 60.38C51.1629 65.36 52.8729 68.09 55.9929 68.09C59.1129 68.09 60.8229 65.36 60.8229 60.38C60.8229 55.37 59.1129 52.61 55.9929 52.61C52.8729 52.61 51.1629 55.37 51.1629 60.38Z" fill="#A3A3A3"/>
<path d="M48.4533 83.64V89.112H49.4853V91.8H48.4773V90H43.1853V91.8H42.1773V89.112H42.7413C43.2453 89.112 43.5213 88.752 43.6293 87.96L44.2053 83.64H48.4533ZM44.2293 89.112H47.4453V84.528H45.1173L44.6133 88.056C44.5533 88.5 44.4213 88.848 44.2293 89.112ZM50.8721 83.64H51.8801V86.388H54.8801V83.64H55.8881V90H54.8801V87.276H51.8801V90H50.8721V83.64ZM57.2378 86.82C57.2378 84.804 58.3778 83.496 60.1538 83.496C61.5578 83.496 62.8058 84.42 62.9018 86.676L62.9138 87.132H58.3058C58.4018 88.428 59.0618 89.184 60.1538 89.184C60.8258 89.184 61.4498 88.788 61.7378 88.116L62.8178 88.2C62.4458 89.4 61.3658 90.144 60.1538 90.144C58.3778 90.144 57.2378 88.836 57.2378 86.82ZM58.3298 86.244H61.8098C61.6418 84.912 60.9218 84.456 60.1538 84.456C59.1458 84.456 58.4978 85.116 58.3298 86.244ZM69.3398 83.64V90H68.3318V85.272L65.6318 90H64.3838V83.64H65.3918V88.464L68.1518 83.64H69.3398ZM65.1638 81.144H65.9438C65.9438 81.588 66.3398 81.936 66.8678 81.936C67.3838 81.936 67.7798 81.588 67.7798 81.144H68.5598C68.5598 82.008 67.8158 82.68 66.8678 82.68C65.9078 82.68 65.1638 82.008 65.1638 81.144Z" fill="#A3A3A3"/>
</svg>
