<svg width="36" height="36" viewBox="0 0 36 36" fill="none" xmlns="http://www.w3.org/2000/svg">
<path d="M10.5 30H25.5M9 9L18 7.5L27 9M9 9L13.5 18C13.5 19.1935 13.0259 20.3381 12.182 21.182C11.3381 22.0259 10.1935 22.5 9 22.5C7.80653 22.5 6.66193 22.0259 5.81802 21.182C4.97411 20.3381 4.5 19.1935 4.5 18L9 9ZM27 9L31.5 18C31.5 19.1935 31.0259 20.3381 30.182 21.182C29.3381 22.0259 28.1935 22.5 27 22.5C25.8065 22.5 24.6619 22.0259 23.818 21.182C22.9741 20.3381 22.5 19.1935 22.5 18L27 9ZM18 4.5V30" stroke="#00A070" stroke-width="2.2" stroke-linecap="round" stroke-linejoin="round"/>
</svg>
