<svg width="36" height="36" viewBox="0 0 36 36" fill="none" xmlns="http://www.w3.org/2000/svg">
<path d="M26.505 26.5005C24.1909 28.9266 21.2453 30.6581 18 31.5C15.6648 30.8943 13.4752 29.8254 11.5613 28.3567C9.64742 26.8881 8.04826 25.0497 6.85889 22.9508C5.66952 20.8519 4.9142 18.5353 4.63781 16.1388C4.36143 13.7422 4.56961 11.3145 5.25 9C6.441 9.054 7.6245 8.991 8.7855 8.814M13.4775 7.425C15.1232 6.68239 16.6478 5.69635 18 4.5C21.5037 7.59986 26.0767 9.21385 30.75 9C31.4365 11.3356 31.6421 13.7862 31.3544 16.2036C31.0667 18.6209 30.2916 20.9548 29.076 23.064M4.5 4.5L31.5 31.5" stroke="#A3A3A3" stroke-width="2.2" stroke-linecap="round" stroke-linejoin="round"/>
</svg>
