<svg width="20" height="20" viewBox="0 0 20 20" fill="none" xmlns="http://www.w3.org/2000/svg">
<path d="M4.1665 14.1665C4.1665 14.6085 4.3421 15.0325 4.65466 15.345C4.96722 15.6576 5.39114 15.8332 5.83317 15.8332C6.2752 15.8332 6.69912 15.6576 7.01168 15.345C7.32424 15.0325 7.49984 14.6085 7.49984 14.1665M4.1665 14.1665C4.1665 13.7245 4.3421 13.3006 4.65466 12.988C4.96722 12.6754 5.39114 12.4998 5.83317 12.4998C6.2752 12.4998 6.69912 12.6754 7.01168 12.988C7.32424 13.3006 7.49984 13.7245 7.49984 14.1665M4.1665 14.1665H2.49984V10.8332M7.49984 14.1665H12.4998M12.4998 14.1665C12.4998 14.6085 12.6754 15.0325 12.988 15.345C13.3006 15.6576 13.7245 15.8332 14.1665 15.8332C14.6085 15.8332 15.0325 15.6576 15.345 15.345C15.6576 15.0325 15.8332 14.6085 15.8332 14.1665M12.4998 14.1665C12.4998 13.7245 12.6754 13.3006 12.988 12.988C13.3006 12.6754 13.7245 12.4998 14.1665 12.4998C14.6085 12.4998 15.0325 12.6754 15.345 12.988C15.6576 13.3006 15.8332 13.7245 15.8332 14.1665M15.8332 14.1665H17.4998V9.1665M1.6665 4.1665H10.8332V14.1665M17.4998 9.1665H10.8332M17.4998 9.1665L14.9998 4.99984H10.8332M2.49984 7.49984H5.83317" stroke="#737373" stroke-width="1.8" stroke-linecap="round" stroke-linejoin="round"/>
</svg>
